<svg xmlns="http://www.w3.org/2000/svg" viewBox="0 0 245.23 265.79"><defs><style>.cls-1{fill:#212552;}.cls-2{fill:#92d6e9;}.cls-3,.cls-7{fill:#0a1e2b;stroke:#0a1e2b;isolation:isolate;}.cls-11,.cls-3,.cls-4,.cls-7,.cls-8{stroke-linecap:round;stroke-linejoin:round;}.cls-3,.cls-4,.cls-7{stroke-width:6px;}.cls-3{opacity:0.3;}.cls-11,.cls-4,.cls-8{fill:none;stroke:#212552;}.cls-5{fill:#cbedf9;}.cls-6{fill:#e8f9ff;}.cls-7{opacity:0.23;}.cls-8{stroke-width:10px;}.cls-9{fill:#ffea9e;}.cls-10{fill:#edc75d;}.cls-11{stroke-width:8px;}</style></defs><g id="Capa_2" data-name="Capa 2"><g id="Capa_1-2" data-name="Capa 1"><g id="Grupo_68" data-name="Grupo 68"><ellipse id="Elipse_37" data-name="Elipse 37" class="cls-1" cx="116.21" cy="251.27" rx="116.21" ry="14.51"/><g id="Grupo_66" data-name="Grupo 66"><path id="Trazado_619" data-name="Trazado 619" class="cls-2" d="M90.44,241v-4.71a3.83,3.83,0,0,0-3.82-3.82h-42a3.83,3.83,0,0,0-3.82,3.82v14a3.84,3.84,0,0,0,3.82,3.82H72.56a11.52,11.52,0,0,0,8.14-3.38Z"/><path id="Trazado_620" data-name="Trazado 620" class="cls-3" d="M86.62,232.5h-42a3.83,3.83,0,0,0-3.82,3.82v13H82.17L90.44,241v-4.71A3.82,3.82,0,0,0,86.62,232.5Z"/><path id="Trazado_621" data-name="Trazado 621" class="cls-2" d="M142,241v-4.71a3.83,3.83,0,0,1,3.82-3.82h42a3.83,3.83,0,0,1,3.82,3.82v14a3.85,3.85,0,0,1-3.82,3.82H159.87a11.53,11.53,0,0,1-8.15-3.38Z"/><path id="Trazado_622" data-name="Trazado 622" class="cls-3" d="M187.81,232.5h-42a3.83,3.83,0,0,0-3.82,3.82V241l8.28,8.27h41.37v-13A3.83,3.83,0,0,0,187.81,232.5Z"/><path id="Trazado_623" data-name="Trazado 623" class="cls-4" d="M90.44,241v-4.71a3.83,3.83,0,0,0-3.82-3.82h-42a3.83,3.83,0,0,0-3.82,3.82v14a3.84,3.84,0,0,0,3.82,3.82H72.56a11.52,11.52,0,0,0,8.14-3.38Z"/><path id="Trazado_624" data-name="Trazado 624" class="cls-4" d="M142,241v-4.71a3.83,3.83,0,0,1,3.82-3.82h42a3.83,3.83,0,0,1,3.82,3.82v14a3.85,3.85,0,0,1-3.82,3.82H159.87a11.53,11.53,0,0,1-8.15-3.38Z"/><path id="Trazado_625" data-name="Trazado 625" class="cls-5" d="M199,241.09H33.48A25.45,25.45,0,0,1,8,215.65V50.16A25.46,25.46,0,0,1,33.46,24.7H199a25.46,25.46,0,0,1,25.46,25.44V215.63A25.45,25.45,0,0,1,199,241.09Z"/><path id="Trazado_626" data-name="Trazado 626" class="cls-6" d="M199,24.7H33.48A25.45,25.45,0,0,0,8,50.14V64.8A25.45,25.45,0,0,1,33.46,39.35H199a25.44,25.44,0,0,1,25.46,25.44h0V50.16A25.46,25.46,0,0,0,199,24.7Z"/><path id="Trazado_627" data-name="Trazado 627" class="cls-2" d="M199,226.45H33.48A25.44,25.44,0,0,1,8,201v14.62a25.44,25.44,0,0,0,25.44,25.46H199a25.44,25.44,0,0,0,25.46-25.44h0V201A25.45,25.45,0,0,1,199,226.45Z"/><path id="Trazado_628" data-name="Trazado 628" class="cls-4" d="M199,241.09H33.48A25.45,25.45,0,0,1,8,215.65V50.16A25.46,25.46,0,0,1,33.46,24.7H199a25.46,25.46,0,0,1,25.46,25.44V215.63A25.45,25.45,0,0,1,199,241.09Z"/><path id="Trazado_629" data-name="Trazado 629" class="cls-6" d="M191.31,47.61H41.11A10.22,10.22,0,0,0,30.93,57.8v5.09c0-5.6,4.58-8.28,10.18-8.28h150.2c5.6,0,10.19,2.68,10.19,8.28V57.8a10.19,10.19,0,0,0-10.16-10.19Z"/><path id="Trazado_630" data-name="Trazado 630" class="cls-2" d="M191.31,209.9H41.11a10.21,10.21,0,0,1-10.18-10.18V208a10.22,10.22,0,0,0,10.18,10.18h150.2A10.22,10.22,0,0,0,201.5,208v-8.28A10.21,10.21,0,0,1,191.31,209.9Z"/><path id="Trazado_631" data-name="Trazado 631" class="cls-4" d="M41.11,218.18A10.22,10.22,0,0,1,30.93,208V57.8A10.22,10.22,0,0,1,41.11,47.61h150.2A10.23,10.23,0,0,1,201.5,57.8V208a10.22,10.22,0,0,1-10.19,10.18Z"/><path id="Trazado_632" data-name="Trazado 632" class="cls-7" d="M183.23,193.42H182a2.55,2.55,0,0,1-2.55-2.55V94.14A2.55,2.55,0,0,1,182,91.59h1.27a2.56,2.56,0,0,1,2.55,2.55v96.73A2.56,2.56,0,0,1,183.23,193.42Z"/><path id="Trazado_633" data-name="Trazado 633" class="cls-2" d="M183.23,180.69H182a2.55,2.55,0,0,1-2.55-2.54V81.41A2.55,2.55,0,0,1,182,78.86h1.27a2.57,2.57,0,0,1,2.55,2.55v96.74A2.56,2.56,0,0,1,183.23,180.69Z"/><path id="Trazado_634" data-name="Trazado 634" class="cls-4" d="M183.23,180.69H182a2.55,2.55,0,0,1-2.55-2.54V81.41A2.55,2.55,0,0,1,182,78.86h1.27a2.57,2.57,0,0,1,2.55,2.55v96.74A2.56,2.56,0,0,1,183.23,180.69Z"/><circle id="Elipse_38" data-name="Elipse 38" class="cls-7" cx="116.21" cy="137.99" r="41.37"/><circle id="Elipse_39" data-name="Elipse 39" class="cls-5" cx="116.21" cy="132.9" r="41.37"/><circle id="Elipse_40" data-name="Elipse 40" class="cls-4" cx="116.21" cy="132.9" r="41.37"/><circle id="Elipse_41" data-name="Elipse 41" class="cls-2" cx="116.21" cy="132.9" r="34.37"/><line id="Línea_47" data-name="Línea 47" class="cls-8" x1="116.21" y1="106.8" x2="116.21" y2="158.99"/><line id="Línea_48" data-name="Línea 48" class="cls-8" x1="142.31" y1="132.9" x2="90.12" y2="132.9"/><line id="Línea_49" data-name="Línea 49" class="cls-8" x1="134.67" y1="114.44" x2="97.76" y2="151.35"/><line id="Línea_50" data-name="Línea 50" class="cls-8" x1="134.67" y1="151.35" x2="97.76" y2="114.44"/><path id="Trazado_635" data-name="Trazado 635" class="cls-3" d="M116.21,163.25h0a15.92,15.92,0,0,1-15.91-15.91V131.43h31.82v15.91A15.91,15.91,0,0,1,116.21,163.25Z"/><path id="Trazado_636" data-name="Trazado 636" class="cls-7" d="M30.93,109h0a5.1,5.1,0,0,1-5.09-5.09V88.66a5.1,5.1,0,0,1,5.09-5.09h0A5.1,5.1,0,0,1,36,88.66v15.28A5.1,5.1,0,0,1,30.93,109Z"/><path id="Trazado_637" data-name="Trazado 637" class="cls-7" d="M30.93,192.08h0A5.1,5.1,0,0,1,25.84,187V171.72a5.1,5.1,0,0,1,5.09-5.09h0A5.1,5.1,0,0,1,36,171.72V187A5.1,5.1,0,0,1,30.93,192.08Z"/><path id="Trazado_638" data-name="Trazado 638" class="cls-2" d="M30.93,103.94h0a5.1,5.1,0,0,1-5.09-5.09V83.57a5.1,5.1,0,0,1,5.09-5.09h0A5.1,5.1,0,0,1,36,83.57V98.85A5.11,5.11,0,0,1,30.93,103.94Z"/><path id="Trazado_639" data-name="Trazado 639" class="cls-2" d="M30.93,187.31h0a5.1,5.1,0,0,1-5.09-5.09V167a5.11,5.11,0,0,1,5.09-5.1h0A5.11,5.11,0,0,1,36,167v15.27A5.1,5.1,0,0,1,30.93,187.31Z"/><path id="Trazado_640" data-name="Trazado 640" class="cls-4" d="M30.93,103.94h0a5.1,5.1,0,0,1-5.09-5.09V83.57a5.1,5.1,0,0,1,5.09-5.09h0A5.1,5.1,0,0,1,36,83.57V98.85A5.11,5.11,0,0,1,30.93,103.94Z"/><path id="Trazado_641" data-name="Trazado 641" class="cls-4" d="M30.93,187.31h0a5.1,5.1,0,0,1-5.09-5.09V167a5.11,5.11,0,0,1,5.09-5.1h0A5.11,5.11,0,0,1,36,167v15.27A5.1,5.1,0,0,1,30.93,187.31Z"/><circle id="Elipse_42" data-name="Elipse 42" class="cls-9" cx="116.21" cy="132.9" r="15.91"/><circle id="Elipse_43" data-name="Elipse 43" class="cls-10" cx="116.21" cy="132.9" r="7.13"/><circle id="Elipse_44" data-name="Elipse 44" class="cls-11" cx="116.21" cy="132.9" r="14.64"/></g><g id="Grupo_67" data-name="Grupo 67"><line id="Línea_51" data-name="Línea 51" class="cls-4" x1="242.23" y1="36.03" x2="229.37" y2="34.25"/><line id="Línea_52" data-name="Línea 52" class="cls-4" x1="211.62" y1="15.86" x2="209.71" y2="3"/><line id="Línea_53" data-name="Línea 53" class="cls-4" x1="224.34" y1="20.5" x2="233.57" y2="11.27"/></g></g></g></g></svg>