<svg xmlns="http://www.w3.org/2000/svg" viewBox="0 0 319.57 123.84"><defs><style>.cls-1,.cls-11{fill:#444e59;}.cls-19,.cls-2{fill:#bbbfc2;}.cls-3{fill:#e3f8f3;}.cls-4,.cls-6{fill:#848484;}.cls-11,.cls-12,.cls-15,.cls-16,.cls-18,.cls-19,.cls-4,.cls-6{isolation:isolate;}.cls-4{opacity:0.4;}.cls-12,.cls-15,.cls-21,.cls-22,.cls-23,.cls-24,.cls-25,.cls-26,.cls-5{fill:none;stroke:#444e59;stroke-linejoin:round;}.cls-12,.cls-15,.cls-25,.cls-5{stroke-linecap:round;}.cls-21,.cls-22,.cls-23,.cls-5{stroke-width:2px;}.cls-6{opacity:0.32;}.cls-7{fill:#afb1b2;}.cls-8{fill:#aeaeaf;}.cls-16,.cls-9{fill:#fff;}.cls-10{fill:#61b5a1;}.cls-11,.cls-12,.cls-13{opacity:0.2;}.cls-12,.cls-15{stroke-width:4px;}.cls-14{opacity:0.09;}.cls-15,.cls-20{opacity:0.3;}.cls-16{opacity:0.62;}.cls-17{fill:#ed8b3b;}.cls-18{fill:#5d5d5d;opacity:0.71;}.cls-19{opacity:0.8;}.cls-22{stroke-dasharray:2.86 1.9;}.cls-23{stroke-dasharray:3.01 2;}</style></defs><g id="Capa_2" data-name="Capa 2"><g id="Capa_1-2" data-name="Capa 1"><g id="Capa_1-2-2" data-name="Capa 1-2"><g id="Grupo_65" data-name="Grupo 65"><g id="Grupo_28" data-name="Grupo 28"><path id="Trazado_462" data-name="Trazado 462" class="cls-1" d="M316.07,123.84H3.46A3.45,3.45,0,0,1,0,120.41H0A3.45,3.45,0,0,1,3.43,117H316.11a3.44,3.44,0,0,1,3.46,3.42h0A3.5,3.5,0,0,1,316.07,123.84Z"/><g id="Grupo_17" data-name="Grupo 17"><rect id="Rectángulo_22" data-name="Rectángulo 22" class="cls-1" x="123.15" y="116.74" width="54.07" height="3.23"/><g id="Grupo_11" data-name="Grupo 11"><path id="Trazado_463" data-name="Trazado 463" class="cls-2" d="M214.77,95.65H87.21a4.62,4.62,0,0,1-4.61-4.6V5.61A4.62,4.62,0,0,1,87.21,1H214.77a4.63,4.63,0,0,1,4.61,4.61V91a4.59,4.59,0,0,1-4.54,4.64h0Z"/><rect id="Rectángulo_23" data-name="Rectángulo 23" class="cls-3" x="91.24" y="9.67" width="120.04" height="69.77"/><path id="Trazado_464" data-name="Trazado 464" class="cls-4" d="M215.08,95.65h-20V59.25A5.25,5.25,0,0,1,200.3,54h14.78V95.66Z"/><path id="Trazado_465" data-name="Trazado 465" class="cls-4" d="M92.32,60.48H82.6V89.16a6.67,6.67,0,0,0,6.68,6.5h11.18V68.77A8.33,8.33,0,0,0,92.32,60.48Z"/><path id="Trazado_466" data-name="Trazado 466" class="cls-5" d="M215.16,95.65H87.36a4.62,4.62,0,0,1-4.61-4.6V5.61A4.63,4.63,0,0,1,87.36,1h127.8a4.63,4.63,0,0,1,4.61,4.61V91a4.63,4.63,0,0,1-4.59,4.67Z"/><rect id="Rectángulo_24" data-name="Rectángulo 24" class="cls-5" x="91.43" y="9.67" width="119.69" height="69.77"/></g><path id="Trazado_467" data-name="Trazado 467" class="cls-6" d="M187.86,76.07h-66a2.7,2.7,0,0,1-2.68-2.69V26.3a2.7,2.7,0,0,1,2.68-2.69h66a2.7,2.7,0,0,1,2.68,2.69v47A2.7,2.7,0,0,1,187.87,76h0Z"/><path id="Trazado_468" data-name="Trazado 468" class="cls-7" d="M184.78,73.46h-66a2.71,2.71,0,0,1-2.69-2.69v-47a2.71,2.71,0,0,1,2.69-2.69h66a2.71,2.71,0,0,1,2.69,2.69v47a2.65,2.65,0,0,1-2.61,2.69h-.08Z"/><path id="Trazado_469" data-name="Trazado 469" class="cls-5" d="M184.78,73.46h-66a2.71,2.71,0,0,1-2.69-2.69v-47a2.71,2.71,0,0,1,2.69-2.69h66a2.71,2.71,0,0,1,2.69,2.69v47a2.65,2.65,0,0,1-2.61,2.69h-.08Z"/><path id="Trazado_470" data-name="Trazado 470" class="cls-8" d="M167.35,116.74H135.17l4-21.09h24.19Z"/><path id="Trazado_471" data-name="Trazado 471" class="cls-6" d="M164.43,101.61l-1.07-6h-24.2l-1.07,6Z"/><path id="Trazado_472" data-name="Trazado 472" class="cls-5" d="M167.35,116.74H135.17l4-21.09h24.19Z"/><rect id="Rectángulo_25" data-name="Rectángulo 25" class="cls-5" x="123.15" y="116.74" width="54.07" height="3.23"/><circle id="Elipse_16" data-name="Elipse 16" class="cls-1" cx="151.07" cy="85.98" r="2.38"/><path id="Trazado_473" data-name="Trazado 473" class="cls-9" d="M179.37,68.62h-66A2.71,2.71,0,0,1,110.71,66V18.85a2.7,2.7,0,0,1,2.69-2.68h66a2.7,2.7,0,0,1,2.69,2.68v47a2.69,2.69,0,0,1-2.63,2.73Z"/><path id="Trazado_474" data-name="Trazado 474" class="cls-5" d="M179.37,68.62h-66A2.71,2.71,0,0,1,110.71,66V18.85a2.7,2.7,0,0,1,2.69-2.68h66a2.7,2.7,0,0,1,2.69,2.68v47a2.69,2.69,0,0,1-2.63,2.73Z"/><path id="Trazado_475" data-name="Trazado 475" class="cls-2" d="M182.1,24.27H110.71V19a2.86,2.86,0,0,1,2.84-2.84h65.9a2.65,2.65,0,0,1,2.65,2.65Z"/><path id="Trazado_476" data-name="Trazado 476" class="cls-5" d="M182.1,24.27H110.71V19a2.86,2.86,0,0,1,2.84-2.84h65.9a2.65,2.65,0,0,1,2.65,2.65Z"/><g id="Grupo_12" data-name="Grupo 12"><circle id="Elipse_17" data-name="Elipse 17" class="cls-1" cx="117.58" cy="20.24" r="1.27"/><circle id="Elipse_18" data-name="Elipse 18" class="cls-1" cx="121.77" cy="20.24" r="1.27"/><circle id="Elipse_19" data-name="Elipse 19" class="cls-1" cx="125.92" cy="20.24" r="1.27"/></g><path id="Trazado_477" data-name="Trazado 477" class="cls-10" d="M175.38,38.32H116.89a.79.79,0,0,1-.77-.77V29.38a.79.79,0,0,1,.77-.77h58.49a.77.77,0,0,1,.76.77v8.18a.76.76,0,0,1-.76.76Z"/><g id="Grupo_13" data-name="Grupo 13"><path id="Trazado_478" data-name="Trazado 478" class="cls-11" d="M133.71,48.58H116.85a.76.76,0,0,1-.76-.76h0V43.4a.76.76,0,0,1,.75-.77h16.87a.76.76,0,0,1,.77.77h0v4.41a.76.76,0,0,1-.73.77h0Z"/><line id="Línea_1" data-name="Línea 1" class="cls-12" x1="118.81" y1="52.91" x2="132.33" y2="52.91"/><line id="Línea_2" data-name="Línea 2" class="cls-12" x1="118.81" y1="57.25" x2="132.33" y2="57.25"/></g><g id="Grupo_14" data-name="Grupo 14"><path id="Trazado_479" data-name="Trazado 479" class="cls-11" d="M154.83,48.58H138a.76.76,0,0,1-.76-.76h0V43.4a.76.76,0,0,1,.75-.77h16.87a.76.76,0,0,1,.77.75v4.43a.76.76,0,0,1-.75.77Z"/><line id="Línea_3" data-name="Línea 3" class="cls-12" x1="139.89" y1="52.91" x2="152.87" y2="52.91"/><line id="Línea_4" data-name="Línea 4" class="cls-12" x1="139.89" y1="57.25" x2="152.87" y2="57.25"/></g><g id="Grupo_15" data-name="Grupo 15" class="cls-13"><path id="Trazado_480" data-name="Trazado 480" class="cls-1" d="M175.91,57.79H159.06a.76.76,0,0,1-.77-.75V43.43a.76.76,0,0,1,.77-.77h16.85a.79.79,0,0,1,.77.77V57a.77.77,0,0,1-.73.81Z"/></g><g id="Grupo_16" data-name="Grupo 16" class="cls-14"><path id="Trazado_481" data-name="Trazado 481" class="cls-1" d="M175.38,62.13H159.32a1.07,1.07,0,0,1-1.07-1.07h0A1.11,1.11,0,0,1,159.32,60h16.06a1.07,1.07,0,0,1,1.07,1.07h0A1.11,1.11,0,0,1,175.38,62.13Z"/></g></g><g id="Grupo_18" data-name="Grupo 18"><path id="Trazado_482" data-name="Trazado 482" class="cls-9" d="M92.28,120H66.43a3.86,3.86,0,0,1-3.83-3.84V64.34a3.86,3.86,0,0,1,3.83-3.84H92.28a3.85,3.85,0,0,1,3.84,3.84v51.8A3.82,3.82,0,0,1,92.3,120h0Z"/><path id="Trazado_483" data-name="Trazado 483" class="cls-10" d="M96.71,78.33H62.6V64.24a3.76,3.76,0,0,1,3.76-3.76H92.71a4,4,0,0,1,4,4v13.9Z"/><path id="Trazado_484" data-name="Trazado 484" class="cls-5" d="M92.28,120H66.43a3.86,3.86,0,0,1-3.83-3.84V64.34a3.86,3.86,0,0,1,3.83-3.84H92.28a3.85,3.85,0,0,1,3.84,3.84v51.8A3.82,3.82,0,0,1,92.3,120h0Z"/><path id="Trazado_485" data-name="Trazado 485" class="cls-2" d="M92.32,120H66.55a4,4,0,0,1-4-4V108.6H96.11v7.57A3.8,3.8,0,0,1,92.32,120Z"/><path id="Trazado_486" data-name="Trazado 486" class="cls-5" d="M92.39,120H66.55a4,4,0,0,1-4-4V108.6H96.11v7.65A3.73,3.73,0,0,1,92.39,120Z"/><circle id="Elipse_20" data-name="Elipse 20" class="cls-1" cx="79.61" cy="114.05" r="1.92"/><line id="Línea_5" data-name="Línea 5" class="cls-15" x1="70.16" y1="84.29" x2="89.09" y2="84.29"/><line id="Línea_6" data-name="Línea 6" class="cls-15" x1="73.92" y1="90.24" x2="85.83" y2="90.24"/><line id="Línea_7" data-name="Línea 7" class="cls-15" x1="70.16" y1="95.65" x2="89.09" y2="95.65"/><circle id="Elipse_21" data-name="Elipse 21" class="cls-16" cx="79.61" cy="70.77" r="4.3"/><path id="Trazado_487" data-name="Trazado 487" class="cls-17" d="M85.83,101.61a2.16,2.16,0,0,1-2.15,2.15h-8.1a2.15,2.15,0,0,1-2.15-2.15h0a2.13,2.13,0,0,1,2.11-2.15h8.17a2.1,2.1,0,0,1,2.15,2Z"/></g><g id="Grupo_27" data-name="Grupo 27"><path id="Trazado_488" data-name="Trazado 488" class="cls-2" d="M292.42,113h-93V57a3,3,0,0,1,3-3h87.09a2.91,2.91,0,0,1,2.92,2.9h0V113Z"/><path id="Trazado_489" data-name="Trazado 489" class="cls-5" d="M292.65,113.05h-93V57a3.1,3.1,0,0,1,3.07-3.08h86.86A3.08,3.08,0,0,1,292.65,57Z"/><rect id="Rectángulo_26" data-name="Rectángulo 26" class="cls-18" x="204.59" y="58.8" width="82.75" height="49.23"/><path id="Trazado_490" data-name="Trazado 490" class="cls-6" d="M225,98.73h-7.15a.77.77,0,0,1-.76-.77V73.5a.77.77,0,0,1,.55-.77h7.14c.64,0,1,.34,1,.77V98a.76.76,0,0,1-.77.75Z"/><path id="Trazado_491" data-name="Trazado 491" class="cls-6" d="M276.6,103.68H235.36a1.54,1.54,0,0,1-1.54-1.54h0V70.62a1.54,1.54,0,0,1,1.54-1.54H276.6a1.53,1.53,0,0,1,1.53,1.53h0v31.52a1.5,1.5,0,0,1-1.46,1.54h-.07Z"/><rect id="Rectángulo_27" data-name="Rectángulo 27" class="cls-5" x="204.8" y="59.07" width="82.68" height="48.81"/><path id="Trazado_492" data-name="Trazado 492" class="cls-9" d="M302.79,113.05H189.47v3.61a3.09,3.09,0,0,0,3.07,3.07H299.71a3.09,3.09,0,0,0,3.07-3.07Z"/><path id="Trazado_493" data-name="Trazado 493" class="cls-19" d="M193.81,120H298.49a4.38,4.38,0,0,0,4.22-3.8H189.55A4.42,4.42,0,0,0,193.81,120Z"/><path id="Trazado_494" data-name="Trazado 494" class="cls-5" d="M302.79,113.05H189.47v3.61a3.09,3.09,0,0,0,3.07,3.07H299.71a3.09,3.09,0,0,0,3.07-3.07Z"/><rect id="Rectángulo_28" data-name="Rectángulo 28" class="cls-10" x="215.08" y="70.77" width="8.64" height="8.64"/><rect id="Rectángulo_29" data-name="Rectángulo 29" class="cls-5" x="215.23" y="70.85" width="8.64" height="8.64"/><rect id="Rectángulo_30" data-name="Rectángulo 30" class="cls-3" x="215.08" y="79.41" width="8.64" height="8.64"/><rect id="Rectángulo_31" data-name="Rectángulo 31" class="cls-5" x="215.23" y="79.53" width="8.64" height="8.64"/><rect id="Rectángulo_32" data-name="Rectángulo 32" class="cls-9" x="215.08" y="88.05" width="8.64" height="8.64"/><rect id="Rectángulo_33" data-name="Rectángulo 33" class="cls-5" x="215.23" y="88.17" width="8.64" height="8.64"/><path id="Trazado_495" data-name="Trazado 495" class="cls-9" d="M274.1,101H232.82a1.52,1.52,0,0,1-1.53-1.53h0V68a1.53,1.53,0,0,1,1.52-1.54H274.1A1.54,1.54,0,0,1,275.64,68h0V99.5a1.52,1.52,0,0,1-1.5,1.54h0Z"/><path id="Trazado_496" data-name="Trazado 496" class="cls-5" d="M274.1,101H232.82a1.52,1.52,0,0,1-1.53-1.53h0V68a1.53,1.53,0,0,1,1.52-1.54H274.1A1.54,1.54,0,0,1,275.64,68h0V99.5a1.52,1.52,0,0,1-1.5,1.54h0Z"/><g id="Grupo_20" data-name="Grupo 20" class="cls-20"><g id="Grupo_19" data-name="Grupo 19"><path id="Trazado_497" data-name="Trazado 497" class="cls-21" d="M262.71,92v.58h-.58"/><line id="Línea_8" data-name="Línea 8" class="cls-22" x1="261.35" y1="92.5" x2="245.26" y2="92.5"/><path id="Trazado_498" data-name="Trazado 498" class="cls-21" d="M244.88,92.5h-.58V92"/><line id="Línea_9" data-name="Línea 9" class="cls-23" x1="244.3" y1="91.12" x2="244.3" y2="76.15"/><path id="Trazado_499" data-name="Trazado 499" class="cls-21" d="M244.3,75.76v-.57h.58"/><line id="Línea_10" data-name="Línea 10" class="cls-22" x1="245.61" y1="75.19" x2="261.7" y2="75.19"/><path id="Trazado_500" data-name="Trazado 500" class="cls-21" d="M262.08,75.19h.63v.57"/><line id="Línea_11" data-name="Línea 11" class="cls-23" x1="262.66" y1="76.53" x2="262.66" y2="91.54"/></g></g><g id="Grupo_21" data-name="Grupo 21"><rect id="Rectángulo_34" data-name="Rectángulo 34" class="cls-9" x="243.04" y="73.84" width="2.73" height="2.73"/><rect id="Rectángulo_35" data-name="Rectángulo 35" class="cls-24" x="242.92" y="73.73" width="2.69" height="2.69"/></g><g id="Grupo_22" data-name="Grupo 22"><rect id="Rectángulo_36" data-name="Rectángulo 36" class="cls-9" x="243.04" y="91.12" width="2.73" height="2.73"/><rect id="Rectángulo_37" data-name="Rectángulo 37" class="cls-24" x="242.92" y="91.05" width="2.69" height="2.69"/></g><g id="Grupo_23" data-name="Grupo 23"><rect id="Rectángulo_38" data-name="Rectángulo 38" class="cls-9" x="261.32" y="73.84" width="2.73" height="2.73"/><rect id="Rectángulo_39" data-name="Rectángulo 39" class="cls-24" x="261.32" y="73.73" width="2.69" height="2.69"/></g><g id="Grupo_24" data-name="Grupo 24"><rect id="Rectángulo_40" data-name="Rectángulo 40" class="cls-9" x="261.32" y="91.12" width="2.73" height="2.73"/><rect id="Rectángulo_41" data-name="Rectángulo 41" class="cls-24" x="261.32" y="91.05" width="2.69" height="2.69"/></g><g id="Grupo_26" data-name="Grupo 26"><g id="Grupo_25" data-name="Grupo 25"><path id="Trazado_501" data-name="Trazado 501" class="cls-9" d="M219.57,84l2.73,5.84L225,91.2l1.84-1.84-1.34-2.69Z"/><path id="Trazado_502" data-name="Trazado 502" class="cls-24" d="M219.57,84l2.73,5.84L225,91.2l1.84-1.84-1.34-2.69Z"/><path id="Elipse_22" data-name="Elipse 22" class="cls-1" d="M223,86.55a.73.73,0,1,1-.73.73A.73.73,0,0,1,223,86.55Z"/><line id="Línea_12" data-name="Línea 12" class="cls-25" x1="219.57" y1="83.98" x2="222.61" y2="87.01"/></g><rect id="Rectángulo_42" data-name="Rectángulo 42" class="cls-9" x="225.24" y="89.97" width="2.61" height="1.88" transform="translate(2.07 186.82) rotate(-45)"/><rect id="Rectángulo_43" data-name="Rectángulo 43" class="cls-26" x="225.24" y="89.97" width="2.61" height="1.88" transform="translate(2.07 186.82) rotate(-45)"/></g></g></g></g></g></g></g></svg>