<svg xmlns="http://www.w3.org/2000/svg" viewBox="0 0 135.45 166.25"><defs><style>.cls-1{fill:#2d2d2d;stroke:#2d2d2d;isolation:isolate;opacity:0.3;}.cls-1,.cls-3,.cls-4,.cls-5,.cls-7{stroke-linecap:round;}.cls-1,.cls-3,.cls-4,.cls-5{stroke-linejoin:round;}.cls-1,.cls-3,.cls-4{stroke-width:3.07px;}.cls-2{fill:#fff;}.cls-3{fill:silver;stroke:silver;}.cls-4,.cls-5,.cls-7{fill:none;}.cls-4,.cls-5{stroke:#330e00;}.cls-5{stroke-width:1.54px;}.cls-6{fill:#330e00;}.cls-7{stroke:#fff;stroke-miterlimit:10;stroke-width:1.92px;}</style></defs><g id="Capa_2" data-name="Capa 2"><g id="Capa_1-2" data-name="Capa 1"><g id="Capa_1-2-2" data-name="Capa 1-2"><g id="Grupo_65" data-name="Grupo 65"><g id="Grupo_64" data-name="Grupo 64"><g id="Grupo_63" data-name="Grupo 63"><g id="Grupo_62" data-name="Grupo 62"><path id="Trazado_608" data-name="Trazado 608" class="cls-1" d="M42.56,82.12c-7.42-10.48-19.22-14.85-26.38-9.78s-7,17.65.45,28.13c6.46,9.13,16.3,13.64,23.42,11.23l30.84,49.21c2.61,4.1,6.72,4.76,9.78,2.6s3.81-6.21.8-10.08L45.32,108C50,102,49,91.24,42.56,82.12Z"/><circle id="Elipse_30" data-name="Elipse 30" class="cls-1" cx="70.74" cy="70.73" r="63.18"/><circle id="Elipse_31" data-name="Elipse 31" class="cls-2" cx="64.71" cy="64.71" r="63.18"/><path id="Trazado_609" data-name="Trazado 609" class="cls-3" d="M38.84,96.91c4.61-6,3.66-16.7-2.81-25.83C28.62,60.59,2.74,79,10.12,89.44c6.46,9.11,16.3,13.64,23.4,11.22l15,23.87a61.89,61.89,0,0,0,14.1,2.31Z"/><path id="Trazado_610" data-name="Trazado 610" class="cls-3" d="M122,79.26H106v-16h16a4,4,0,0,1,4,4v8A4,4,0,0,1,122,79.26Z"/><circle id="Elipse_32" data-name="Elipse 32" class="cls-3" cx="66.23" cy="71.24" r="39.62"/><circle id="Elipse_33" data-name="Elipse 33" class="cls-4" cx="64.71" cy="64.71" r="63.18"/><g id="Grupo_61" data-name="Grupo 61"><path id="Trazado_611" data-name="Trazado 611" class="cls-2" d="M34.53,76.1C27.12,65.62,15.32,61.26,8.15,66.32s-7,17.65.47,28.13c6.46,9.13,16.3,13.64,23.4,11.24l30.85,49.22c2.61,4.1,6.71,4.76,9.78,2.6s3.81-6.22.8-10.07L37.3,102C42,96,41,85.23,34.53,76.1Z"/><path id="Trazado_612" data-name="Trazado 612" class="cls-3" d="M37.89,100c1.45-6.53-1.56-14.34-6.12-22-2.71-4.47-5.07-8-8.68-10.58C23.09,80.46,29.07,91.79,37.89,100Z"/><path id="Trazado_613" data-name="Trazado 613" class="cls-5" d="M15.68,94.44a29.74,29.74,0,0,1-2.26-2.75c-3.3-4.67-4.91-10-4.72-14.25"/><path id="Trazado_614" data-name="Trazado 614" class="cls-4" d="M34.53,76.1C27.12,65.62,15.32,61.26,8.15,66.32s-7,17.65.47,28.13c6.46,9.13,16.3,13.64,23.4,11.24l30.85,49.22c2.61,4.1,6.71,4.76,9.78,2.6s3.81-6.22.8-10.07L37.3,102C42,96,41,85.23,34.53,76.1Z"/></g><path id="Trazado_615" data-name="Trazado 615" class="cls-2" d="M120.53,72.74H101.18v-16h19.35a4,4,0,0,1,4,4v8a4,4,0,0,1-3.94,4Z"/><path id="Trazado_616" data-name="Trazado 616" class="cls-4" d="M120.53,72.74H101.18v-16h19.35a4,4,0,0,1,4,4v8a4,4,0,0,1-3.94,4Z"/><circle id="Elipse_34" data-name="Elipse 34" class="cls-2" cx="64.71" cy="64.72" r="39.62"/><circle id="Elipse_35" data-name="Elipse 35" class="cls-4" cx="64.71" cy="64.72" r="39.62"/><circle id="Elipse_36" data-name="Elipse 36" class="cls-6" cx="64.71" cy="64.72" r="31.74"/><path id="Trazado_617" data-name="Trazado 617" class="cls-7" d="M67.93,39.69a25.74,25.74,0,1,1-26,37.41"/><path id="Trazado_618" data-name="Trazado 618" class="cls-7" d="M66.08,46.51a21.77,21.77,0,0,1,16.3,14.74"/></g></g></g></g></g></g></g></svg>