<svg xmlns="http://www.w3.org/2000/svg" viewBox="0 0 383.92 272.11"><defs><style>.cls-1,.cls-13,.cls-14,.cls-9{fill:none;stroke:#601b23;}.cls-1,.cls-13,.cls-14,.cls-19,.cls-9{stroke-linecap:round;stroke-linejoin:round;}.cls-1,.cls-19{stroke-width:6px;}.cls-2{fill:#e36535;}.cls-3{fill:#f4a045;}.cls-25,.cls-4{fill:#fff;}.cls-5{fill:#c11a4d;}.cls-6{fill:#cf264d;}.cls-11,.cls-19,.cls-23,.cls-7{fill:#a5143a;}.cls-10,.cls-11,.cls-19,.cls-21,.cls-23,.cls-25,.cls-7,.cls-8{isolation:isolate;}.cls-19,.cls-7{opacity:0.72;}.cls-10,.cls-17,.cls-8{fill:#f4a15d;}.cls-8{opacity:0.23;}.cls-9{stroke-width:3px;}.cls-10,.cls-16{opacity:0.32;}.cls-11{opacity:0.37;}.cls-12{fill:#601b23;}.cls-13{stroke-width:4px;}.cls-14{stroke-width:2px;}.cls-15{fill:#4e8280;}.cls-18{fill:#37605d;}.cls-19{stroke:#a5143a;}.cls-20{fill:#abcfd8;}.cls-21{fill:#e2f0f2;opacity:0.93;}.cls-22{fill:#bc1d4e;}.cls-23{opacity:0.74;}.cls-24{opacity:0.53;}.cls-25{opacity:0.41;}</style></defs><g id="Capa_2" data-name="Capa 2"><g id="Capa_1-2" data-name="Capa 1"><g id="Capa_1-2-2" data-name="Capa 1-2"><g id="Grupo_65" data-name="Grupo 65"><g id="Grupo_40" data-name="Grupo 40"><path id="Trazado_503" data-name="Trazado 503" class="cls-1" d="M188.12,139.82c-3.61.46-6.49,5.53-7,9.72a29.69,29.69,0,0,0-.23,3.65,31.35,31.35,0,0,0,2.38,11.67c1.54,3.8,3.84,7.68,6.6,9.91,2.8-2.23,5.07-6.11,6.61-9.91a31.35,31.35,0,0,0,2.38-11.67,29.69,29.69,0,0,0-.23-3.65c-.54-4.23-3.42-9.26-7-9.72A18.71,18.71,0,0,0,188.12,139.82Z"/><path id="Trazado_504" data-name="Trazado 504" class="cls-2" d="M188.12,139.82c-3.61.46-6.49,5.53-7,9.72a29.69,29.69,0,0,0-.23,3.65,31.35,31.35,0,0,0,2.38,11.67c1.54,3.8,3.84,7.68,6.6,9.91,2.8-2.23,5.07-6.11,6.61-9.91a31.35,31.35,0,0,0,2.38-11.67,29.69,29.69,0,0,0-.23-3.65c-.54-4.23-3.42-9.26-7-9.72A18.71,18.71,0,0,0,188.12,139.82Z"/><path id="Trazado_505" data-name="Trazado 505" class="cls-3" d="M206,163.9a55.71,55.71,0,0,1-4.26,20.93c-.07.23-.19.46-.3.73-2.77,6.6-6.73,13.21-11.53,17.08-5-4-9-10.86-11.78-17.66a.22.22,0,0,0-.08-.15,55.9,55.9,0,0,1-4.26-20.93,53.42,53.42,0,0,1,.42-6.57c.92-7.45,6-16.43,12.33-17.39h.23a28.65,28.65,0,0,1,6,0,.57.57,0,0,1,.26,0c6.46.81,11.64,9.91,12.56,17.43A62,62,0,0,1,206,163.9Z"/><path id="Trazado_506" data-name="Trazado 506" class="cls-1" d="M206,163.9a55.71,55.71,0,0,1-4.26,20.93c-.07.23-.19.46-.3.73-2.77,6.6-6.73,13.21-11.53,17.08-5-4-9-10.86-11.78-17.66a.22.22,0,0,0-.08-.15,55.9,55.9,0,0,1-4.26-20.93,53.42,53.42,0,0,1,.42-6.57c.92-7.45,6-16.43,12.33-17.39h.23a28.65,28.65,0,0,1,6,0,.57.57,0,0,1,.26,0c6.46.81,11.64,9.91,12.56,17.43A62,62,0,0,1,206,163.9Z"/><path id="Trazado_507" data-name="Trazado 507" class="cls-4" d="M383.92,203.45a20.47,20.47,0,0,0-13,11.52,43.83,43.83,0,0,0-51.49,17.28,31.52,31.52,0,0,0-13.4-3,29.19,29.19,0,0,0-6.11.62v-.62a20.39,20.39,0,0,0-16.09-19.93,29.07,29.07,0,0,0-53.45-5.8,19.1,19.1,0,0,0-13-5.18,19.51,19.51,0,0,0-8.06,1.77,104.69,104.69,0,0,1-7.91-14.67,102.72,102.72,0,0,1-8.72-41.63c0-1.34,0-2.65.08-4A102.89,102.89,0,0,1,206.24,92.5H173a103.33,103.33,0,0,1,13.48,47.35c0,1.3.07,2.61.07,3.91a103,103,0,0,1-22.12,64A25.34,25.34,0,0,0,128.83,204a25,25,0,0,0-3.8,3.82,25,25,0,0,0-31.41,5,37.55,37.55,0,0,0-68.7,21v.32A45.58,45.58,0,0,0,0,272.11H383.92Z"/><path id="Trazado_508" data-name="Trazado 508" class="cls-5" d="M143.54,81.18,131,86.11V62.29l38.44-30v45l-9.29,4.82A20.1,20.1,0,0,0,143.54,81.18Z"/><path id="Trazado_509" data-name="Trazado 509" class="cls-6" d="M126.92,92.28a34.29,34.29,0,0,1-6.18-19.58,34.86,34.86,0,0,1,9.52-23.85,35.22,35.22,0,0,1,9.6,23.85,34.51,34.51,0,0,1-6.15,19.58Z"/><path id="Trazado_510" data-name="Trazado 510" class="cls-7" d="M131,86.11l12.44-4.84a44.64,44.64,0,0,0-.69-10.06,46.46,46.46,0,0,0-5-14.13l-6.72,5.26Z"/><path id="Trazado_511" data-name="Trazado 511" class="cls-8" d="M132.63,68.94l36.86-28.73V32.3L131,62.25V86.11l1.61-.61Z"/><path id="Trazado_512" data-name="Trazado 512" class="cls-7" d="M154.17,80.11a19.3,19.3,0,0,1,6,2l9.3-4.88v-45L153.26,44.87a93.76,93.76,0,0,0-1.19,15.24A98.15,98.15,0,0,0,154.17,80.11Z"/><path id="Trazado_513" data-name="Trazado 513" class="cls-9" d="M143.54,81.18,131,86.11V62.29l38.44-30v45l-9.29,4.82A20.1,20.1,0,0,0,143.54,81.18Z"/><path id="Trazado_514" data-name="Trazado 514" class="cls-6" d="M126.92,92.28a34.29,34.29,0,0,1-6.18-19.58,34.86,34.86,0,0,1,9.52-23.85,35.22,35.22,0,0,1,9.6,23.85,34.51,34.51,0,0,1-6.15,19.58Z"/><path id="Trazado_515" data-name="Trazado 515" class="cls-8" d="M129.71,48.85a19.26,19.26,0,0,1,1.35,1.58,38.8,38.8,0,0,0-6.34,21c0,7.6,1.15,14.71,5.07,20.85h-3.53a34.59,34.59,0,0,1-6.15-19.58A35.22,35.22,0,0,1,129.71,48.85Z"/><path id="Trazado_516" data-name="Trazado 516" class="cls-10" d="M129.71,48.85a6,6,0,0,1,.46.54,40.26,40.26,0,0,0-1.72,42.93h-2.19a34.59,34.59,0,0,1-6.15-19.58A35.23,35.23,0,0,1,129.71,48.85Z"/><path id="Trazado_517" data-name="Trazado 517" class="cls-11" d="M139.92,72.7a34.91,34.91,0,0,0-9.6-23.85A19.26,19.26,0,0,0,129,50.43a38.27,38.27,0,0,1,.2,41.89h4.6A34.81,34.81,0,0,0,139.92,72.7Z"/><path id="Trazado_518" data-name="Trazado 518" class="cls-7" d="M139.92,72.7a34.91,34.91,0,0,0-9.6-23.85,6,6,0,0,0-.46.54,40.26,40.26,0,0,1,1.72,42.93h2.19A34.81,34.81,0,0,0,139.92,72.7Z"/><path id="Trazado_519" data-name="Trazado 519" class="cls-11" d="M130.29,48.85a19.26,19.26,0,0,0-1.35,1.58,38.27,38.27,0,0,1,.2,41.89h4.6a34.62,34.62,0,0,0,6.18-19.58A35.24,35.24,0,0,0,130.29,48.85Z"/><path id="Trazado_520" data-name="Trazado 520" class="cls-7" d="M130.29,48.85a6,6,0,0,0-.46.54,40.26,40.26,0,0,1,1.72,42.93h2.19a34.62,34.62,0,0,0,6.18-19.58A35.24,35.24,0,0,0,130.29,48.85Z"/><path id="Trazado_521" data-name="Trazado 521" class="cls-12" d="M134.67,55.76a39.64,39.64,0,0,0-5.07-6.95,38,38,0,0,0-5.07,6.95Z"/><path id="Trazado_522" data-name="Trazado 522" class="cls-1" d="M126.92,92.28a34.29,34.29,0,0,1-6.18-19.58,34.86,34.86,0,0,1,9.52-23.85,35.22,35.22,0,0,1,9.6,23.85,34.51,34.51,0,0,1-6.15,19.58Z"/><path id="Trazado_523" data-name="Trazado 523" class="cls-6" d="M176.83,121.93s-4.65,1-11.33,7.68a128.87,128.87,0,0,0-9,11.06,2,2,0,0,1-3.65-1.16l-.93-40.89a4,4,0,0,1,.84-3.23l10.06-12.52Z"/><path id="Trazado_524" data-name="Trazado 524" class="cls-10" d="M152.75,140.32h0a4.53,4.53,0,0,0,3.88-4.42l.42-38a4.09,4.09,0,0,1,.85-3.23l6.3-7.87-1.42-3.92-10,12.48a4.09,4.09,0,0,0-.85,3.23Z"/><path id="Trazado_525" data-name="Trazado 525" class="cls-7" d="M176.83,121.93l-14-39.06-5.57,7a154.32,154.32,0,0,0,14.1,34.91A17.42,17.42,0,0,1,176.83,121.93Z"/><path id="Trazado_526" data-name="Trazado 526" class="cls-9" d="M176.83,121.93s-4.65,1-11.33,7.68a128.87,128.87,0,0,0-9,11.06,2,2,0,0,1-3.65-1.16l-.93-40.89a4,4,0,0,1,.84-3.23l10.06-12.52Z"/><line id="Línea_13" data-name="Línea 13" class="cls-13" x1="123.3" y1="87.21" x2="135.93" y2="87.21"/><path id="Trazado_527" data-name="Trazado 527" class="cls-6" d="M126.92,92.28a34.29,34.29,0,0,1-6.18-19.58,34.86,34.86,0,0,1,9.52-23.85,35.22,35.22,0,0,1,9.6,23.85,34.51,34.51,0,0,1-6.15,19.58Z"/><path id="Trazado_528" data-name="Trazado 528" class="cls-6" d="M126.92,92.28a34.29,34.29,0,0,1-6.18-19.58,34.86,34.86,0,0,1,9.52-23.85,35.22,35.22,0,0,1,9.6,23.85,34.51,34.51,0,0,1-6.15,19.58Z"/><path id="Trazado_529" data-name="Trazado 529" class="cls-8" d="M129.71,48.85a19.26,19.26,0,0,1,1.35,1.58,38.8,38.8,0,0,0-6.34,21c0,7.6,1.15,14.71,5.07,20.85h-3.53a34.59,34.59,0,0,1-6.15-19.58A35.22,35.22,0,0,1,129.71,48.85Z"/><path id="Trazado_530" data-name="Trazado 530" class="cls-10" d="M129.71,48.85a6,6,0,0,1,.46.54,40.26,40.26,0,0,0-1.72,42.93h-2.19a34.59,34.59,0,0,1-6.15-19.58A35.23,35.23,0,0,1,129.71,48.85Z"/><path id="Trazado_531" data-name="Trazado 531" class="cls-11" d="M139.92,72.7a34.91,34.91,0,0,0-9.6-23.85A19.26,19.26,0,0,0,129,50.43a38.27,38.27,0,0,1,.2,41.89h4.6A34.81,34.81,0,0,0,139.92,72.7Z"/><path id="Trazado_532" data-name="Trazado 532" class="cls-7" d="M139.92,72.7a34.91,34.91,0,0,0-9.6-23.85,6,6,0,0,0-.46.54,40.26,40.26,0,0,1,1.72,42.93h2.19A34.81,34.81,0,0,0,139.92,72.7Z"/><path id="Trazado_533" data-name="Trazado 533" class="cls-11" d="M130.29,48.85a19.26,19.26,0,0,0-1.35,1.58,38.27,38.27,0,0,1,.2,41.89h4.6a34.62,34.62,0,0,0,6.18-19.58A35.24,35.24,0,0,0,130.29,48.85Z"/><path id="Trazado_534" data-name="Trazado 534" class="cls-7" d="M130.29,48.85a6,6,0,0,0-.46.54,40.26,40.26,0,0,1,1.72,42.93h2.19a34.62,34.62,0,0,0,6.18-19.58A35.24,35.24,0,0,0,130.29,48.85Z"/><path id="Trazado_535" data-name="Trazado 535" class="cls-12" d="M135.36,55.76a39.64,39.64,0,0,0-5.07-6.95,38,38,0,0,0-5.07,6.95Z"/><path id="Trazado_536" data-name="Trazado 536" class="cls-9" d="M126.92,92.28a34.29,34.29,0,0,1-6.18-19.58,34.86,34.86,0,0,1,9.52-23.85,35.22,35.22,0,0,1,9.6,23.85,34.51,34.51,0,0,1-6.15,19.58Z"/><line id="Línea_14" data-name="Línea 14" class="cls-14" x1="123.3" y1="87.21" x2="135.93" y2="87.21"/><path id="Trazado_537" data-name="Trazado 537" class="cls-5" d="M234,81.18l12.52,4.93V62.29l-38.44-30v45l9.29,4.87A20.1,20.1,0,0,1,234,81.18Z"/><path id="Trazado_538" data-name="Trazado 538" class="cls-7" d="M246.49,86.11,234,81.27a44.65,44.65,0,0,1,.7-10.06,45.84,45.84,0,0,1,5-14.13l6.72,5.26Z"/><path id="Trazado_539" data-name="Trazado 539" class="cls-8" d="M244.92,68.94,208.05,40.21V32.3l38.44,30V86.11l-1.58-.61Z"/><path id="Trazado_540" data-name="Trazado 540" class="cls-7" d="M223.33,80.11a19.3,19.3,0,0,0-6,2L208,77.23v-45l16.2,12.64A96.51,96.51,0,0,1,223.32,80Z"/><path id="Trazado_541" data-name="Trazado 541" class="cls-9" d="M234,81.18l12.52,4.93V62.29l-38.44-30v45l9.29,4.87A20.1,20.1,0,0,1,234,81.18Z"/><path id="Trazado_542" data-name="Trazado 542" class="cls-6" d="M200.71,121.93s4.65,1,11.33,7.68a128.87,128.87,0,0,1,9,11.06,2,2,0,0,0,2.78.51l.1-.07a2,2,0,0,0,.81-1.57l.93-40.89a4.09,4.09,0,0,0-.85-3.23L214.75,82.9Z"/><path id="Trazado_543" data-name="Trazado 543" class="cls-7" d="M224.75,140.32h0a4.54,4.54,0,0,1-3.88-4.42l-.42-38a4,4,0,0,0-.84-3.23l-6.3-7.87,1.42-3.92L224.79,95.4a4.08,4.08,0,0,1,.84,3.23Z"/><path id="Trazado_544" data-name="Trazado 544" class="cls-7" d="M200.71,121.93l14-39.06,5.57,7a154.76,154.76,0,0,1-14.09,34.91A17.47,17.47,0,0,0,200.71,121.93Z"/><path id="Trazado_545" data-name="Trazado 545" class="cls-9" d="M200.71,121.93s4.65,1,11.33,7.68a128.87,128.87,0,0,1,9,11.06,2,2,0,0,0,2.78.51l.1-.07a2,2,0,0,0,.81-1.57l.93-40.89a4.09,4.09,0,0,0-.85-3.23L214.75,82.9Z"/><path id="Trazado_546" data-name="Trazado 546" class="cls-15" d="M200.52,143.89c.42-4.57-.19-8.87-7.87-20.2a3.56,3.56,0,0,0-5-.63l0,0a4.25,4.25,0,0,0-.6.6c-7.68,11.37-8.29,15.67-7.87,20.2a1.57,1.57,0,0,0,1.76,1c4.42-2.26,13.37-2.26,17.78,0A1.54,1.54,0,0,0,200.52,143.89Z"/><g id="Grupo_32" data-name="Grupo 32" class="cls-16"><g id="Grupo_31" data-name="Grupo 31"><g id="Grupo_29" data-name="Grupo 29"><path id="Trazado_547" data-name="Trazado 547" class="cls-17" d="M183.09,143.89c-.42-4.57.19-8.87,7.87-20.2a2.79,2.79,0,0,1,.84-.8,3.53,3.53,0,0,0-4.72.8c-7.68,11.37-8.29,15.67-7.87,20.2a1.58,1.58,0,0,0,1.77,1,16.51,16.51,0,0,1,2.15-.84A.41.41,0,0,1,183.09,143.89Z"/></g><g id="Grupo_30" data-name="Grupo 30"><path id="Trazado_548" data-name="Trazado 548" class="cls-17" d="M191.8,143.28a19.64,19.64,0,0,1,7,1.61,1.62,1.62,0,0,0,1.73-.84A25.44,25.44,0,0,0,191.8,143.28Z"/></g></g></g><g id="Grupo_35" data-name="Grupo 35"><g id="Grupo_34" data-name="Grupo 34"><g id="Grupo_33" data-name="Grupo 33"><path id="Trazado_549" data-name="Trazado 549" class="cls-18" d="M188.43,123.69c-.11-.13-.23-.26-.35-.38a3.54,3.54,0,0,1,5,.14c.07.07.14.16.21.24,7.68,11.37,8.3,15.67,7.87,20.2a1.57,1.57,0,0,1-1.76,1,13.62,13.62,0,0,0-3.11-1.07C196.72,139.28,196.07,135,188.43,123.69Z"/></g></g></g><path id="Trazado_550" data-name="Trazado 550" class="cls-9" d="M200.52,143.89c.42-4.57-.19-8.87-7.87-20.2a3.56,3.56,0,0,0-5-.63l0,0a4.25,4.25,0,0,0-.6.6c-7.68,11.37-8.29,15.67-7.87,20.2a1.57,1.57,0,0,0,1.76,1c4.42-2.26,13.37-2.26,17.78,0A1.54,1.54,0,0,0,200.52,143.89Z"/><path id="Trazado_551" data-name="Trazado 551" class="cls-6" d="M198.52,130.11c18.09-29.61,24.65-58.68,20.58-82.91-3.53-21-14.9-36.21-29.26-45.7C175.48,11,164.11,26.16,160.58,47.2c-4.06,24.23,2.54,53.3,20.59,82.91Z"/><path id="Trazado_552" data-name="Trazado 552" class="cls-8" d="M174.33,47.62c2.3-19,8.3-34.17,16.36-45.5-.27-.19-.58-.38-.84-.57C175.49,11,164.12,26.2,160.59,47.25c-4.07,24.23,2.53,53.3,20.58,82.9h3.65C174.79,100.54,171.41,72.11,174.33,47.62Z"/><path id="Trazado_553" data-name="Trazado 553" class="cls-11" d="M219.11,47.2c-3.5-20.89-14.71-36-29-45.46A97.57,97.57,0,0,1,199,19.94a103.69,103.69,0,0,1,6.11,33.17c1.38,33-11.25,69.47-13.9,77h7.33C216.61,100.5,223.18,71.43,219.11,47.2Z"/><path id="Trazado_554" data-name="Trazado 554" class="cls-7" d="M219.11,47.2c-3.54-21-14.9-36.21-29.26-45.7-.39.23-.73.5-1.12.73a64.39,64.39,0,0,1,12.75,13.21c28.26,39.32,1.15,98.19-2.57,106a84.15,84.15,0,0,0-2.8-19.2A87.32,87.32,0,0,0,191.77,90L190,129h4.76c-.11.38-.23.73-.38,1.11h4C216.61,100.5,223.18,71.43,219.11,47.2Z"/><path id="Trazado_555" data-name="Trazado 555" class="cls-10" d="M165.42,53.88c.54-6.14,2.53-26.11,14.86-42.51,2-2.57,4.88-6.06,4.65-6.26s-7.1,5.8-11.9,12.29a68.21,68.21,0,0,0-12.4,29.8c-4.07,24.23,2.53,53.3,20.58,82.91h1.57a175.18,175.18,0,0,1-10.44-25.8A151.22,151.22,0,0,1,166.69,80C165.65,72.47,164.5,64.4,165.42,53.88Z"/><circle id="Elipse_23" data-name="Elipse 23" class="cls-19" cx="191.92" cy="51.35" r="10.44"/><path id="Trazado_556" data-name="Trazado 556" class="cls-9" d="M198.52,130.11c18.09-29.61,24.65-58.68,20.58-82.91-3.53-21-14.9-36.21-29.26-45.7C175.48,11,164.11,26.16,160.58,47.2c-4.06,24.23,2.54,53.3,20.59,82.91Z"/><circle id="Elipse_24" data-name="Elipse 24" class="cls-20" cx="189.84" cy="49.73" r="10.44"/><circle id="Elipse_25" data-name="Elipse 25" class="cls-21" cx="188.43" cy="49.16" r="6.3"/><circle id="Elipse_26" data-name="Elipse 26" class="cls-9" cx="189.84" cy="49.73" r="10.44"/><path id="Trazado_557" data-name="Trazado 557" class="cls-12" d="M175.1,14.75a45.26,45.26,0,0,1,29.61,0A67.37,67.37,0,0,0,189.92,1.5,67.27,67.27,0,0,0,175.1,14.75Z"/><path id="Trazado_558" data-name="Trazado 558" class="cls-9" d="M175.1,14.75a45.26,45.26,0,0,1,29.61,0A67.37,67.37,0,0,0,189.92,1.5,67.27,67.27,0,0,0,175.1,14.75Z"/><path id="Trazado_559" data-name="Trazado 559" class="cls-22" d="M189.85,148.11h0c.42,0,.76-.46.8-1.08l2.88-47c.31-4.84-1.23-9.33-3.5-10.4a.4.4,0,0,0-.42,0c-2.26,1-3.8,5.53-3.49,10.4L189,147C189.08,147.62,189.46,148.11,189.85,148.11Z"/><path id="Trazado_560" data-name="Trazado 560" class="cls-23" d="M189.85,148.11h0c.42,0,.76-.46.8-1.08l2.88-47c.31-4.84-1.23-9.33-3.5-10.4a.4.4,0,0,0-.42,0c-2.26,1-3.8,5.53-3.49,10.4L189,147C189.08,147.62,189.46,148.11,189.85,148.11Z"/><g id="Grupo_39" data-name="Grupo 39" class="cls-24"><g id="Grupo_38" data-name="Grupo 38"><g id="Grupo_36" data-name="Grupo 36"><path id="Trazado_561" data-name="Trazado 561" class="cls-17" d="M189.65,89.6c-2.26,1-3.8,5.52-3.49,10.4L189,147a1.16,1.16,0,0,0,.58,1V89.6Z"/></g><g id="Grupo_37" data-name="Grupo 37"><path id="Trazado_562" data-name="Trazado 562" class="cls-17" d="M189.65,89.6h.43A.42.42,0,0,0,189.65,89.6Z"/></g></g></g><path id="Trazado_563" data-name="Trazado 563" class="cls-14" d="M189.85,148.11h0c.42,0,.76-.46.8-1.08l2.88-47c.31-4.84-1.23-9.33-3.5-10.4a.4.4,0,0,0-.42,0c-2.26,1-3.8,5.53-3.49,10.4L189,147C189.08,147.62,189.46,148.11,189.85,148.11Z"/><path id="Trazado_564" data-name="Trazado 564" class="cls-6" d="M246.22,92.28A34.29,34.29,0,0,1,240,72.7a34.91,34.91,0,0,1,9.52-23.85,35.11,35.11,0,0,1,9.6,23.85A34.6,34.6,0,0,1,253,92.28Z"/><path id="Trazado_565" data-name="Trazado 565" class="cls-6" d="M246.22,92.28A34.29,34.29,0,0,1,240,72.7a34.91,34.91,0,0,1,9.52-23.85,35.11,35.11,0,0,1,9.6,23.85A34.6,34.6,0,0,1,253,92.28Z"/><path id="Trazado_566" data-name="Trazado 566" class="cls-8" d="M249,48.85a17.41,17.41,0,0,1,1.34,1.58,38.9,38.9,0,0,0-6.33,21c0,7.6,1.15,14.71,5.07,20.85h-3.54A34.42,34.42,0,0,1,249,48.81Z"/><path id="Trazado_567" data-name="Trazado 567" class="cls-10" d="M249,48.85a6,6,0,0,1,.46.54,40.26,40.26,0,0,0-1.73,42.93h-2.19A34.42,34.42,0,0,1,249,48.85Z"/><path id="Trazado_568" data-name="Trazado 568" class="cls-11" d="M259.16,72.7a34.91,34.91,0,0,0-9.6-23.85,19.26,19.26,0,0,0-1.35,1.58,38.27,38.27,0,0,1,.2,41.89H253A34.81,34.81,0,0,0,259.16,72.7Z"/><path id="Trazado_569" data-name="Trazado 569" class="cls-7" d="M259.16,72.7a34.91,34.91,0,0,0-9.6-23.85,6,6,0,0,0-.46.54,40.28,40.28,0,0,1,1.73,42.93H253A34.81,34.81,0,0,0,259.16,72.7Z"/><path id="Trazado_570" data-name="Trazado 570" class="cls-11" d="M249.56,48.85a19.26,19.26,0,0,0-1.35,1.58,38.27,38.27,0,0,1,.2,41.89H253A34.42,34.42,0,0,0,249.56,48.85Z"/><path id="Trazado_571" data-name="Trazado 571" class="cls-7" d="M249.56,48.85a6,6,0,0,0-.46.54,40.28,40.28,0,0,1,1.73,42.93H253A34.42,34.42,0,0,0,249.56,48.85Z"/><path id="Trazado_572" data-name="Trazado 572" class="cls-12" d="M254.67,55.76a39.64,39.64,0,0,0-5.07-6.95,38,38,0,0,0-5.07,6.95Z"/><path id="Trazado_573" data-name="Trazado 573" class="cls-9" d="M246.22,92.28A34.29,34.29,0,0,1,240,72.7a34.91,34.91,0,0,1,9.52-23.85,35.11,35.11,0,0,1,9.6,23.85A34.6,34.6,0,0,1,253,92.28Z"/><line id="Línea_15" data-name="Línea 15" class="cls-14" x1="243.3" y1="87.21" x2="255.93" y2="87.21"/><path id="Trazado_574" data-name="Trazado 574" class="cls-25" d="M178,13.45s2.61-4.11,11.48-11a38.54,38.54,0,0,0-5.18,9.33A62.78,62.78,0,0,0,178,13.45Z"/></g></g></g></g></g></svg>