<svg xmlns="http://www.w3.org/2000/svg" viewBox="0 0 245.07 123.92"><defs><style>.cls-1{fill:#c9c9c9;}.cls-2{fill:#cecece;}.cls-3{fill:#fff;}.cls-14,.cls-16,.cls-18,.cls-19,.cls-20,.cls-21,.cls-22,.cls-24,.cls-26,.cls-27,.cls-4{fill:none;}.cls-24,.cls-26,.cls-27,.cls-4,.cls-6{stroke:#1f3969;}.cls-14,.cls-16,.cls-18,.cls-19,.cls-20,.cls-21,.cls-22,.cls-24,.cls-26,.cls-27,.cls-4,.cls-6{stroke-linecap:round;stroke-linejoin:round;}.cls-18,.cls-19,.cls-20,.cls-21,.cls-22,.cls-4,.cls-6{stroke-width:1.54px;}.cls-5{fill:#ff3e3e;}.cls-17,.cls-6{fill:#1f3969;}.cls-14,.cls-6{isolation:isolate;}.cls-6{opacity:0.28;}.cls-7{fill:#50b56f;}.cls-8{fill:#5f5aff;}.cls-9{fill:#f6f9fd;}.cls-10{fill:#bfcfe2;}.cls-11{fill:#2d425e;}.cls-12{fill:#d0ddf0;}.cls-13{fill:#2aa1ff;}.cls-14,.cls-16,.cls-18{stroke:#fff;}.cls-14,.cls-16{stroke-width:0.77px;}.cls-14,.cls-15{opacity:0.34;}.cls-19{stroke:#7bffa0;}.cls-20{stroke:#9169ff;}.cls-21{stroke:#ffc47d;}.cls-22{stroke:#ff5757;}.cls-23{fill:#ffa364;}.cls-24{stroke-width:1.54px;}.cls-25{fill:#ff5252;}.cls-26{stroke-width:1.53px;}.cls-27{stroke-width:1.54px;}.cls-28{fill:#6567c3;}</style></defs><g id="Capa_2" data-name="Capa 2"><g id="Capa_1-2" data-name="Capa 1"><g id="Capa_1-2-2" data-name="Capa 1-2"><g id="Grupo_65" data-name="Grupo 65"><g id="Grupo_60" data-name="Grupo 60"><g id="Grupo_59" data-name="Grupo 59"><path id="Trazado_575" data-name="Trazado 575" class="cls-1" d="M241.62,123.92H3.45A3.44,3.44,0,0,1,0,120.51v0H0A3.42,3.42,0,0,1,3.39,117H241.62a3.42,3.42,0,0,1,3.45,3.39v0h0a3.44,3.44,0,0,1-3.42,3.46h0Z"/><g id="Grupo_55" data-name="Grupo 55"><g id="Grupo_41" data-name="Grupo 41"><path id="Trazado_576" data-name="Trazado 576" class="cls-2" d="M48.24,88.21a6.65,6.65,0,0,1,0-13.29H85.89V88.25H48.24Z"/><path id="Trazado_577" data-name="Trazado 577" class="cls-3" d="M88.06,90.51H48.24a9,9,0,0,1-9-9h0a9,9,0,0,1,9-8.94H88.06V90.51Z"/><line id="Línea_16" data-name="Línea 16" class="cls-4" x1="45.78" y1="79.49" x2="85.87" y2="79.49"/><line id="Línea_17" data-name="Línea 17" class="cls-4" x1="45.78" y1="83.56" x2="85.87" y2="83.56"/><path id="Trazado_578" data-name="Trazado 578" class="cls-4" d="M48.24,88.21a6.65,6.65,0,0,1,0-13.29H85.89V88.25H48.24Z"/><path id="Trazado_579" data-name="Trazado 579" class="cls-5" d="M48.24,88.21a6.65,6.65,0,0,1,0-13.29h38.3l1.54-2.3H48.24a9,9,0,0,0-9,9h0a9,9,0,0,0,9,9H88.06l-1.54-2.3Z"/><path id="Trazado_580" data-name="Trazado 580" class="cls-4" d="M48.24,88.21a6.65,6.65,0,0,1,0-13.29h38.3l1.54-2.3H48.24a9,9,0,0,0-9,9h0a9,9,0,0,0,9,9H88.06l-1.54-2.3Z"/><rect id="Rectángulo_46" data-name="Rectángulo 46" class="cls-6" x="72.43" y="72.58" width="7.07" height="17.93"/></g><g id="Grupo_42" data-name="Grupo 42"><path id="Trazado_581" data-name="Trazado 581" class="cls-7" d="M84,105.3H11a2.64,2.64,0,0,1-2.62-2.62V93.06A2.63,2.63,0,0,1,11,90.45H84a2.61,2.61,0,0,1,2.61,2.61v9.6A2.61,2.61,0,0,1,84,105.28Z"/><path id="Trazado_582" data-name="Trazado 582" class="cls-4" d="M84,105.3H11a2.64,2.64,0,0,1-2.62-2.62V93.06A2.63,2.63,0,0,1,11,90.45H84a2.61,2.61,0,0,1,2.61,2.61v9.6A2.61,2.61,0,0,1,84,105.28Z"/></g><path id="Trazado_583" data-name="Trazado 583" class="cls-6" d="M84,90.51H72.45v5.76A6.56,6.56,0,0,0,79,102.84h7.58V93.12A2.59,2.59,0,0,0,84,90.51H84Z"/><path id="Trazado_584" data-name="Trazado 584" class="cls-2" d="M104.45,108.29H20a12.8,12.8,0,0,1,0,8.76h84.44a11.9,11.9,0,0,1-.77-4.38A12.59,12.59,0,0,1,104.45,108.29Z"/><rect id="Rectángulo_47" data-name="Rectángulo 47" class="cls-8" x="17.75" y="105.95" width="89.05" height="2.3"/><rect id="Rectángulo_48" data-name="Rectángulo 48" class="cls-4" x="17.75" y="105.95" width="89.05" height="2.3"/><rect id="Rectángulo_49" data-name="Rectángulo 49" class="cls-9" x="17.75" y="117.01" width="89.05" height="2.3"/><rect id="Rectángulo_50" data-name="Rectángulo 50" class="cls-8" x="17.75" y="117.01" width="89.05" height="2.3"/><rect id="Rectángulo_51" data-name="Rectángulo 51" class="cls-4" x="17.75" y="117.01" width="89.05" height="2.3"/><path id="Trazado_585" data-name="Trazado 585" class="cls-10" d="M151,111.13l-1.15-12.94h-19l-1.15,12.94c-.27,3-2.07,5.88-4.92,8.18h31.1A12.28,12.28,0,0,1,151,111.13Z"/><path id="Trazado_586" data-name="Trazado 586" class="cls-6" d="M130.91,98.19l-.69,7.76h20.35l-.69-7.76Z"/><path id="Trazado_587" data-name="Trazado 587" class="cls-4" d="M151,111.13l-1.15-12.94h-19l-1.15,12.94c-.27,3-2.07,5.88-4.92,8.18h31.1A12.28,12.28,0,0,1,151,111.13Z"/><path id="Trazado_588" data-name="Trazado 588" class="cls-3" d="M201.07,100.11H79.72a4.62,4.62,0,0,1-4.6-4.61V16.4a4.62,4.62,0,0,1,4.6-4.61H201.07a4.63,4.63,0,0,1,4.61,4.61V95.5a4.62,4.62,0,0,1-4.6,4.61Z"/><path id="Trazado_589" data-name="Trazado 589" class="cls-10" d="M201.07,100.11H79.72a4.62,4.62,0,0,1-4.6-4.61V16.4a4.62,4.62,0,0,1,4.6-4.61H201.07a4.63,4.63,0,0,1,4.61,4.61V95.5a4.62,4.62,0,0,1-4.6,4.61Z"/><path id="Trazado_590" data-name="Trazado 590" class="cls-4" d="M201.07,100.11H79.72a4.62,4.62,0,0,1-4.6-4.61V16.4a4.62,4.62,0,0,1,4.6-4.61H201.07a4.63,4.63,0,0,1,4.61,4.61V95.5a4.62,4.62,0,0,1-4.6,4.61Z"/><rect id="Rectángulo_52" data-name="Rectángulo 52" class="cls-9" x="81.66" y="18.33" width="117.5" height="67.05"/><path id="Trazado_591" data-name="Trazado 591" class="cls-6" d="M85.87,11.79V65.06a3.1,3.1,0,0,0,3.07,3.08h72.61a3.09,3.09,0,0,0,3.07-3.08V11.79Z"/><rect id="Rectángulo_53" data-name="Rectángulo 53" class="cls-4" x="81.66" y="18.33" width="117.5" height="67.05"/><line id="Línea_18" data-name="Línea 18" class="cls-4" x1="135.25" y1="92.7" x2="145.58" y2="92.7"/><path id="Trazado_592" data-name="Trazado 592" class="cls-11" d="M165,63.86H92.45a3.1,3.1,0,0,1-3.08-3.07V3.88A3.1,3.1,0,0,1,92.45.81h72.61a3.09,3.09,0,0,1,3.07,3.07v57a3,3,0,0,1-3,3h-.06Z"/><path id="Trazado_593" data-name="Trazado 593" class="cls-4" d="M168.08,8.26H89.32V3.84A3.1,3.1,0,0,1,92.4.77H165a3.09,3.09,0,0,1,3.07,3.07Z"/><path id="Trazado_594" data-name="Trazado 594" class="cls-12" d="M168.08,9.72H89.32V3.84A3.1,3.1,0,0,1,92.4.77H165a3.09,3.09,0,0,1,3.07,3.07Z"/><path id="Trazado_595" data-name="Trazado 595" class="cls-4" d="M168.08,9.72H89.32V3.84A3.1,3.1,0,0,1,92.4.77H165a3.09,3.09,0,0,1,3.07,3.07Z"/><path id="Trazado_596" data-name="Trazado 596" class="cls-4" d="M168.08,9.72H89.32V3.84A3.1,3.1,0,0,1,92.4.77H165a3.09,3.09,0,0,1,3.07,3.07Z"/><path id="Trazado_597" data-name="Trazado 597" class="cls-4" d="M165,63.86H92.45a3.1,3.1,0,0,1-3.08-3.07V3.88A3.1,3.1,0,0,1,92.45.81h72.61a3.09,3.09,0,0,1,3.07,3.07v57a3,3,0,0,1-3,3h-.06Z"/><g id="Grupo_45" data-name="Grupo 45"><path id="Trazado_598" data-name="Trazado 598" class="cls-6" d="M202.91,77.46H158.37a3.06,3.06,0,0,1-3.07-3.07h0V27.19a3.06,3.06,0,0,1,3.07-3.07h44.54A3.06,3.06,0,0,1,206,27.19h0V74.38a3.06,3.06,0,0,1-3,3.08Z"/><path id="Trazado_599" data-name="Trazado 599" class="cls-13" d="M206,74.77H161.45a3.08,3.08,0,0,1-3.07-3.08V24.5a3.06,3.06,0,0,1,3.07-3.07H206a3.06,3.06,0,0,1,3.07,3.07h0V71.7a3.06,3.06,0,0,1-3,3.07Z"/><path id="Trazado_600" data-name="Trazado 600" class="cls-4" d="M206,74.77H161.45a3.08,3.08,0,0,1-3.07-3.08V24.5a3.06,3.06,0,0,1,3.07-3.07H206a3.06,3.06,0,0,1,3.07,3.07h0V71.7a3.06,3.06,0,0,1-3,3.07Z"/><path id="Trazado_601" data-name="Trazado 601" class="cls-14" d="M199.34,36.06H168a2,2,0,0,1-2-2v-3a2,2,0,0,1,2-2h31.37a2,2,0,0,1,2,2v3a2,2,0,0,1-2,2Z"/><g id="Grupo_43" data-name="Grupo 43" class="cls-15"><path id="Trazado_602" data-name="Trazado 602" class="cls-16" d="M185.59,47.31H168.08a2,2,0,0,1-2-2v-3a2,2,0,0,1,2-2h17.54a2,2,0,0,1,2,2v3a2,2,0,0,1-2,2Z"/><path id="Trazado_603" data-name="Trazado 603" class="cls-16" d="M199.38,47.31h-6.8a2,2,0,0,1-2-2v-3a2,2,0,0,1,2-2h6.83a2,2,0,0,1,2,2v3a2,2,0,0,1-2,2Z"/></g><g id="Grupo_44" data-name="Grupo 44"><line id="Línea_19" data-name="Línea 19" class="cls-16" x1="166.05" y1="58.99" x2="201.34" y2="58.99"/><line id="Línea_20" data-name="Línea 20" class="cls-16" x1="166.05" y1="63.13" x2="201.34" y2="63.13"/><line id="Línea_21" data-name="Línea 21" class="cls-16" x1="166.05" y1="67.28" x2="187.55" y2="67.28"/></g></g><circle id="Elipse_27" data-name="Elipse 27" class="cls-17" cx="97.04" cy="5.26" r="1.54"/><circle id="Elipse_28" data-name="Elipse 28" class="cls-17" cx="102.38" cy="5.26" r="1.54"/><circle id="Elipse_29" data-name="Elipse 29" class="cls-17" cx="107.72" cy="5.26" r="1.54"/><g id="Grupo_46" data-name="Grupo 46"><line id="Línea_22" data-name="Línea 22" class="cls-18" x1="134.56" y1="16.82" x2="139.55" y2="16.82"/><line id="Línea_23" data-name="Línea 23" class="cls-19" x1="109.25" y1="16.82" x2="130.87" y2="16.82"/><line id="Línea_24" data-name="Línea 24" class="cls-20" x1="98.58" y1="16.82" x2="106.18" y2="16.82"/></g><g id="Grupo_47" data-name="Grupo 47"><line id="Línea_25" data-name="Línea 25" class="cls-20" x1="108.49" y1="54.65" x2="125" y2="54.65"/><line id="Línea_26" data-name="Línea 26" class="cls-19" x1="98.58" y1="54.65" x2="103.92" y2="54.65"/></g><g id="Grupo_48" data-name="Grupo 48"><line id="Línea_27" data-name="Línea 27" class="cls-18" x1="130.87" y1="21.55" x2="133.98" y2="21.55"/><line id="Línea_28" data-name="Línea 28" class="cls-20" x1="116.74" y1="21.55" x2="127.19" y2="21.55"/><line id="Línea_29" data-name="Línea 29" class="cls-21" x1="102.38" y1="21.55" x2="113.02" y2="21.55"/></g><g id="Grupo_49" data-name="Grupo 49"><line id="Línea_30" data-name="Línea 30" class="cls-18" x1="118.85" y1="26.27" x2="128.03" y2="26.27"/><line id="Línea_31" data-name="Línea 31" class="cls-22" x1="107.33" y1="26.27" x2="115.97" y2="26.27"/></g><g id="Grupo_50" data-name="Grupo 50"><line id="Línea_32" data-name="Línea 32" class="cls-18" x1="120.08" y1="30.99" x2="121.96" y2="30.99"/><line id="Línea_33" data-name="Línea 33" class="cls-20" x1="112.48" y1="30.99" x2="116.74" y2="30.99"/><line id="Línea_34" data-name="Línea 34" class="cls-19" x1="102.38" y1="30.99" x2="109.25" y2="30.99"/></g><g id="Grupo_51" data-name="Grupo 51"><line id="Línea_35" data-name="Línea 35" class="cls-21" x1="117.13" y1="35.75" x2="129.38" y2="35.75"/><line id="Línea_36" data-name="Línea 36" class="cls-22" x1="102.38" y1="35.75" x2="113.36" y2="35.75"/></g><g id="Grupo_52" data-name="Grupo 52"><line id="Línea_37" data-name="Línea 37" class="cls-20" x1="131.3" y1="40.48" x2="137.94" y2="40.48"/><line id="Línea_38" data-name="Línea 38" class="cls-22" x1="117.13" y1="40.48" x2="127.76" y2="40.48"/><line id="Línea_39" data-name="Línea 39" class="cls-19" x1="107.33" y1="40.48" x2="113.36" y2="40.48"/></g><g id="Grupo_53" data-name="Grupo 53"><line id="Línea_40" data-name="Línea 40" class="cls-18" x1="121.96" y1="45.2" x2="127.76" y2="45.2"/><line id="Línea_41" data-name="Línea 41" class="cls-20" x1="107.33" y1="45.2" x2="117.97" y2="45.2"/></g><g id="Grupo_54" data-name="Grupo 54"><line id="Línea_42" data-name="Línea 42" class="cls-18" x1="137.05" y1="49.92" x2="143.7" y2="49.92"/><line id="Línea_43" data-name="Línea 43" class="cls-21" x1="116.74" y1="49.92" x2="133.45" y2="49.92"/><line id="Línea_44" data-name="Línea 44" class="cls-18" x1="102.38" y1="49.92" x2="113.02" y2="49.92"/></g><line id="Línea_45" data-name="Línea 45" class="cls-4" x1="20.97" y1="110.94" x2="103.72" y2="110.94"/><line id="Línea_46" data-name="Línea 46" class="cls-4" x1="20.97" y1="114.01" x2="103.72" y2="114.01"/><path id="Trazado_604" data-name="Trazado 604" class="cls-4" d="M104.45,108.29H20a12.8,12.8,0,0,1,0,8.76h84.44a11.9,11.9,0,0,1-.77-4.38A12.59,12.59,0,0,1,104.45,108.29Z"/></g><g id="Grupo_58" data-name="Grupo 58"><g id="Grupo_56" data-name="Grupo 56"><rect id="Rectángulo_54" data-name="Rectángulo 54" class="cls-23" x="216.02" y="77.1" width="3.76" height="27.88" transform="translate(-9.16 26.12) rotate(-6.72)"/><rect id="Rectángulo_55" data-name="Rectángulo 55" class="cls-13" x="214.56" y="77.22" width="3.76" height="2.84" transform="translate(-7.72 25.87) rotate(-6.72)"/><rect id="Rectángulo_56" data-name="Rectángulo 56" class="cls-24" x="214.56" y="77.22" width="3.76" height="2.84" transform="translate(-7.72 25.87) rotate(-6.72)"/><rect id="Rectángulo_57" data-name="Rectángulo 57" class="cls-24" x="216.02" y="77.1" width="3.76" height="27.88" transform="translate(-9.16 26.12) rotate(-6.72)"/></g><g id="Grupo_57" data-name="Grupo 57"><rect id="Rectángulo_58" data-name="Rectángulo 58" class="cls-25" x="209.86" y="98.37" width="27.77" height="3.75" transform="translate(99.41 311.55) rotate(-83.66)"/><rect id="Rectángulo_59" data-name="Rectángulo 59" class="cls-26" x="209.86" y="98.37" width="27.77" height="3.75" transform="translate(99.41 311.55) rotate(-83.66)"/><rect id="Rectángulo_60" data-name="Rectángulo 60" class="cls-11" x="225.01" y="82.04" width="2.84" height="3.76" transform="translate(118.51 299.94) rotate(-83.79)"/><rect id="Rectángulo_61" data-name="Rectángulo 61" class="cls-27" x="225.01" y="82.04" width="2.84" height="3.76" transform="translate(118.51 299.94) rotate(-83.79)"/></g><path id="Trazado_605" data-name="Trazado 605" class="cls-28" d="M230.71,119.43H215.62l-2.46-23.12h20Z"/><path id="Trazado_606" data-name="Trazado 606" class="cls-28" d="M213.16,96.31v.42h15.29L226,119.43h4.69l2.45-23.12Z"/><path id="Trazado_607" data-name="Trazado 607" class="cls-4" d="M230.71,119.43H215.62l-2.46-23.12h20Z"/></g></g></g></g></g></g></g></svg>