<svg xmlns="http://www.w3.org/2000/svg" viewBox="0 0 256.11 277.6"><defs><style>.cls-1{fill:#212552;}.cls-2{fill:#92d6e9;}.cls-3,.cls-7{fill:#0a1e2b;}.cls-15,.cls-3,.cls-7{stroke:#0a1e2b;isolation:isolate;}.cls-10,.cls-12,.cls-13,.cls-15,.cls-3,.cls-4,.cls-7{stroke-linecap:round;stroke-linejoin:round;}.cls-10,.cls-3,.cls-4,.cls-7{stroke-width:6px;}.cls-3{opacity:0.3;}.cls-12,.cls-13,.cls-15,.cls-4{fill:none;}.cls-12,.cls-13,.cls-4{stroke:#212552;}.cls-5{fill:#cbedf9;}.cls-6{fill:#e8f9ff;}.cls-15,.cls-7{opacity:0.23;}.cls-8{fill:#53adbc;}.cls-9{fill:#ffe07d;}.cls-10{fill:#9fbdca;stroke:#9fbdca;}.cls-11{fill:#3ca4b5;}.cls-12{stroke-width:10px;}.cls-13{stroke-width:9px;}.cls-14{fill:#ffea9e;}.cls-15{stroke-width:8px;}</style></defs><g id="Capa_2" data-name="Capa 2"><g id="Capa_1-2" data-name="Capa 1"><g id="Grupo_70" data-name="Grupo 70"><ellipse id="Elipse_45" data-name="Elipse 45" class="cls-1" cx="121.44" cy="262.43" rx="121.44" ry="15.16"/><path id="Trazado_642" data-name="Trazado 642" class="cls-2" d="M94.5,251.72V246.8a4,4,0,0,0-4-4H46.62a4,4,0,0,0-4,4v14.63a4,4,0,0,0,4,4h29.2a12,12,0,0,0,8.51-3.52Z"/><path id="Trazado_643" data-name="Trazado 643" class="cls-3" d="M90.51,242.81H46.62a4,4,0,0,0-4,4v13.57H85.86l8.64-8.65V246.8A4,4,0,0,0,90.51,242.81Z"/><path id="Trazado_644" data-name="Trazado 644" class="cls-2" d="M148.37,251.72V246.8a4,4,0,0,1,4-4h43.89a4,4,0,0,1,4,4v14.63a4,4,0,0,1-4,4h-29.2a12,12,0,0,1-8.51-3.52Z"/><path id="Trazado_645" data-name="Trazado 645" class="cls-3" d="M196.25,242.81H152.36a4,4,0,0,0-4,4v4.92l8.65,8.65h43.22V246.8A4,4,0,0,0,196.25,242.81Z"/><path id="Trazado_646" data-name="Trazado 646" class="cls-4" d="M94.5,251.72V246.8a4,4,0,0,0-4-4H46.62a4,4,0,0,0-4,4v14.63a4,4,0,0,0,4,4h29.2a12,12,0,0,0,8.51-3.52Z"/><path id="Trazado_647" data-name="Trazado 647" class="cls-4" d="M148.37,251.72V246.8a4,4,0,0,1,4-4h43.89a4,4,0,0,1,4,4v14.63a4,4,0,0,1-4,4h-29.2a12,12,0,0,1-8.51-3.52Z"/><path id="Trazado_648" data-name="Trazado 648" class="cls-5" d="M207.89,251.79H35A26.59,26.59,0,0,1,8.38,225.2h0V52.28A26.59,26.59,0,0,1,35,25.68H207.89a26.59,26.59,0,0,1,26.6,26.59h0V225.19a26.59,26.59,0,0,1-26.59,26.6Z"/><path id="Trazado_649" data-name="Trazado 649" class="cls-6" d="M207.89,25.68H35A26.59,26.59,0,0,0,8.38,52.27h0v15.3A26.59,26.59,0,0,1,35,41H207.89a26.59,26.59,0,0,1,26.6,26.59h0V52.28a26.59,26.59,0,0,0-26.59-26.6Z"/><path id="Trazado_650" data-name="Trazado 650" class="cls-2" d="M207.89,236.49H35A26.59,26.59,0,0,1,8.38,209.9h0v15.3A26.59,26.59,0,0,0,35,251.79H207.89a26.59,26.59,0,0,0,26.6-26.59h0v-15.3a26.59,26.59,0,0,1-26.59,26.6Z"/><path id="Trazado_651" data-name="Trazado 651" class="cls-7" d="M34.12,224.59l24.2,27.2h45.23l29.2-.2L127,208.3Z"/><path id="Trazado_652" data-name="Trazado 652" class="cls-2" d="M43,227.85a10.67,10.67,0,0,1-10.64-10.64v-157A10.67,10.67,0,0,1,43,49.62h157a10.67,10.67,0,0,1,10.64,10.64v157a10.67,10.67,0,0,1-10.64,10.64Z"/><path id="Trazado_653" data-name="Trazado 653" class="cls-4" d="M210.55,60.26v157a10.67,10.67,0,0,1-10.64,10.64H43a10.67,10.67,0,0,1-10.64-10.64v-157A10.67,10.67,0,0,1,43,49.62h84.73a8.83,8.83,0,0,1,5.05,7.91v6.85h54.93a6.32,6.32,0,0,1,4.46,1.87L205.9,51.48A10.57,10.57,0,0,1,210.55,60.26Z"/><path id="Trazado_654" data-name="Trazado 654" class="cls-8" d="M205.9,51.48,192.13,66.25a6.32,6.32,0,0,0-4.46-1.87H132.74V57.53a9,9,0,0,0-5.05-7.91h72.22A10.28,10.28,0,0,1,205.9,51.48Z"/><path id="Trazado_655" data-name="Trazado 655" class="cls-4" d="M205.9,51.48,192.13,66.25a6.32,6.32,0,0,0-4.46-1.87H132.74V57.53a9,9,0,0,0-5.05-7.91h72.22A10.28,10.28,0,0,1,205.9,51.48Z"/><path id="Trazado_656" data-name="Trazado 656" class="cls-4" d="M192.13,66.18A6.35,6.35,0,0,1,194,70.63V202.91a6.92,6.92,0,0,1-6.9,6.92H132.74"/><path id="Trazado_657" data-name="Trazado 657" class="cls-9" d="M130.35,185.69H108.2a5.59,5.59,0,0,1-5.89-5.29,5.42,5.42,0,0,1,.24-2l3.26-13c.53-2.26,3.26-3.92,6-3.92h14.9c2.79,0,5.45,1.66,6,3.92l3.26,13a5.68,5.68,0,0,1-3.89,7A5.93,5.93,0,0,1,130.35,185.69Z"/><path id="Trazado_658" data-name="Trazado 658" class="cls-4" d="M130.35,185.69H108.2a5.59,5.59,0,0,1-5.89-5.29,5.42,5.42,0,0,1,.24-2l3.26-13c.53-2.26,3.26-3.92,6-3.92h14.9c2.79,0,5.45,1.66,6,3.92l3.26,13a5.68,5.68,0,0,1-3.89,7A5.93,5.93,0,0,1,130.35,185.69Z"/><path id="Trazado_659" data-name="Trazado 659" class="cls-2" d="M40.9,219.2V58.13c0-6.05,3.39-11.57,7.58-12.43l53.8-10.78c5.39-1.06,9.78,3.73,9.78,10.64V231.77c0,7-4.46,11.7-9.78,10.64l-53.8-10.77C44.29,230.84,40.9,225.26,40.9,219.2Z"/><path id="Trazado_660" data-name="Trazado 660" class="cls-4" d="M40.9,219.2V58.13c0-6.05,3.39-11.57,7.58-12.43l53.8-10.78c5.39-1.06,9.78,3.73,9.78,10.64V231.77c0,7-4.46,11.7-9.78,10.64l-53.8-10.77C44.29,230.84,40.9,225.26,40.9,219.2Z"/><path id="Trazado_661" data-name="Trazado 661" class="cls-5" d="M32.32,217.21v-157c0-5.85,3.26-11.44,7.38-12.37L93.5,35.32c5.46-1.26,10,3.33,10,10.31V231.84c0,7-4.52,11.57-10,10.31L39.77,229.58C35.58,228.58,32.32,223.06,32.32,217.21Z"/><path id="Trazado_662" data-name="Trazado 662" class="cls-2" d="M93.5,231.44,39.77,218.87c-4.12-1-7.38-6.52-7.38-12.37v10.64c0,5.86,3.26,11.44,7.38,12.37L93.5,242.08c5.46,1.27,10-3.32,10-10.31V221.13C103.55,228.18,99,232.77,93.5,231.44Z"/><path id="Trazado_663" data-name="Trazado 663" class="cls-6" d="M93.5,35.32,39.77,47.89c-4.12,1-7.38,6.52-7.38,12.37v8c0-5.85,3.26-11.44,7.38-12.37L93.5,43.3c5.46-1.26,10,3.33,10,10.31v-8C103.55,38.65,99,34.06,93.5,35.32Z"/><ellipse id="Elipse_46" data-name="Elipse 46" class="cls-1" cx="95.17" cy="84.4" rx="3.13" ry="7.05"/><path id="Trazado_664" data-name="Trazado 664" class="cls-4" d="M32.32,217.21v-157c0-5.85,3.26-11.44,7.38-12.37L93.5,35.32c5.46-1.26,10,3.33,10,10.31V231.84c0,7-4.52,11.57-10,10.31L39.77,229.58C35.58,228.58,32.32,223.06,32.32,217.21Z"/><ellipse id="Elipse_47" data-name="Elipse 47" class="cls-10" cx="65.31" cy="143.46" rx="18.56" ry="36.31"/><ellipse id="Elipse_48" data-name="Elipse 48" class="cls-10" cx="64.64" cy="177.84" rx="5.72" ry="5.19"/><ellipse id="Elipse_49" data-name="Elipse 49" class="cls-5" cx="66.11" cy="139.07" rx="19.82" ry="36.91"/><ellipse id="Elipse_50" data-name="Elipse 50" class="cls-2" cx="64.64" cy="139.07" rx="15.56" ry="30.59"/><path id="Trazado_665" data-name="Trazado 665" class="cls-7" d="M47.42,139.07l29.13,1.13L67.9,175.84l-9.57-2.79-12-34"/><ellipse id="Elipse_51" data-name="Elipse 51" class="cls-4" cx="66.11" cy="139.07" rx="19.82" ry="36.91"/><path id="Trazado_666" data-name="Trazado 666" class="cls-7" d="M32.32,113.79h0A5.33,5.33,0,0,1,27,108.47v-16a5.34,5.34,0,0,1,5.32-5.32h0a5.34,5.34,0,0,1,5.32,5.32v16A5.32,5.32,0,0,1,32.32,113.79Z"/><path id="Trazado_667" data-name="Trazado 667" class="cls-7" d="M32.32,200.58h0A5.34,5.34,0,0,1,27,195.26v-16A5.34,5.34,0,0,1,32.32,174h0a5.34,5.34,0,0,1,5.32,5.32v16A5.33,5.33,0,0,1,32.32,200.58Z"/><path id="Trazado_668" data-name="Trazado 668" class="cls-2" d="M32.32,108.47h0A5.33,5.33,0,0,1,27,103.15v-16a5.34,5.34,0,0,1,5.32-5.32h0a5.34,5.34,0,0,1,5.32,5.32v16A5.32,5.32,0,0,1,32.32,108.47Z"/><path id="Trazado_669" data-name="Trazado 669" class="cls-2" d="M32.32,195.59h0A5.33,5.33,0,0,1,27,190.27v-16A5.34,5.34,0,0,1,32.32,169h0a5.34,5.34,0,0,1,5.32,5.32v16A5.32,5.32,0,0,1,32.32,195.59Z"/><path id="Trazado_670" data-name="Trazado 670" class="cls-4" d="M32.32,108.47h0A5.33,5.33,0,0,1,27,103.15v-16a5.34,5.34,0,0,1,5.32-5.32h0a5.34,5.34,0,0,1,5.32,5.32v16A5.32,5.32,0,0,1,32.32,108.47Z"/><path id="Trazado_671" data-name="Trazado 671" class="cls-4" d="M32.32,195.59h0A5.33,5.33,0,0,1,27,190.27v-16A5.34,5.34,0,0,1,32.32,169h0a5.34,5.34,0,0,1,5.32,5.32v16A5.32,5.32,0,0,1,32.32,195.59Z"/><g id="Grupo_69" data-name="Grupo 69"><line id="Línea_54" data-name="Línea 54" class="cls-4" x1="253.11" y1="37.51" x2="239.68" y2="35.65"/><line id="Línea_55" data-name="Línea 55" class="cls-4" x1="221.13" y1="16.43" x2="219.13" y2="3"/><line id="Línea_56" data-name="Línea 56" class="cls-4" x1="234.43" y1="21.29" x2="244.07" y2="11.65"/></g><path id="Trazado_672" data-name="Trazado 672" class="cls-11" d="M62.51,125.43H52.07v27.34H62.51c4.59,0,8.25-6.12,8.25-13.64S67,125.43,62.51,125.43Z"/><path id="Trazado_673" data-name="Trazado 673" class="cls-4" d="M62.51,125.43H52.07v27.34H62.51c4.59,0,8.25-6.12,8.25-13.64S67,125.43,62.51,125.43Z"/><ellipse id="Elipse_52" data-name="Elipse 52" class="cls-12" cx="62.51" cy="139.07" rx="8.25" ry="13.63"/><line id="Línea_57" data-name="Línea 57" class="cls-13" x1="75.55" y1="139.07" x2="61.92" y2="139.07"/><path id="Trazado_674" data-name="Trazado 674" class="cls-4" d="M54.2,125.43h8.31v-10.7l-8.31,10.7"/><path id="Trazado_675" data-name="Trazado 675" class="cls-1" d="M54.2,125.43h8.31v-10.7l-8.31,10.7"/><path id="Trazado_676" data-name="Trazado 676" class="cls-1" d="M54.2,152.7h8.31v10.71L54.2,152.7"/><path id="Trazado_677" data-name="Trazado 677" class="cls-4" d="M54.2,152.7h8.31v10.71L54.2,152.7"/><ellipse id="Elipse_53" data-name="Elipse 53" class="cls-14" cx="52.07" cy="139.07" rx="8.25" ry="13.63"/><ellipse id="Elipse_54" data-name="Elipse 54" class="cls-9" cx="51.41" cy="139.07" rx="4.06" ry="6.65"/><ellipse id="Elipse_55" data-name="Elipse 55" class="cls-4" cx="52.07" cy="139.07" rx="8.25" ry="13.63"/><path id="Trazado_678" data-name="Trazado 678" class="cls-5" d="M125,228.58l-13.5,1.33V47.49L125,48.82a8.82,8.82,0,0,1,7.78,8.65v162.4A8.83,8.83,0,0,1,125,228.58Z"/><path id="Trazado_679" data-name="Trazado 679" class="cls-7" d="M133.14,116.85v-19H118.31V118h.07a7.45,7.45,0,0,0,14.9,0A7.25,7.25,0,0,0,133.14,116.85Z"/><path id="Trazado_680" data-name="Trazado 680" class="cls-4" d="M132.74,57.47v162.4a9,9,0,0,1-4.92,7.91,7.22,7.22,0,0,1-2.66.73l-13,1.33V47.49l13,1.33a7.63,7.63,0,0,1,2.66.73A9,9,0,0,1,132.74,57.47Z"/><line id="Línea_58" data-name="Línea 58" class="cls-4" x1="191.46" y1="208.3" x2="207.56" y2="224.59"/><path id="Trazado_681" data-name="Trazado 681" class="cls-2" d="M126,89.06a7.45,7.45,0,0,0,0,14.9h7.26V89.13H126Z"/><path id="Trazado_682" data-name="Trazado 682" class="cls-4" d="M126,89.06a7.45,7.45,0,0,0,0,14.9h7.26V89.13H126Z"/><circle id="Elipse_56" data-name="Elipse 56" class="cls-5" cx="133.27" cy="96.5" r="7.45"/><circle id="Elipse_57" data-name="Elipse 57" class="cls-4" cx="133.27" cy="96.5" r="7.45"/><circle id="Elipse_58" data-name="Elipse 58" class="cls-4" cx="133.27" cy="96.5" r="7.45"/><path id="Trazado_683" data-name="Trazado 683" class="cls-7" d="M133.14,201.78v-19H118.31v20.15h.07a7.45,7.45,0,1,0,14.9,0h0A6.13,6.13,0,0,0,133.14,201.78Z"/><path id="Trazado_684" data-name="Trazado 684" class="cls-2" d="M126,174a7.45,7.45,0,0,0,0,14.9h7.26V174.05H126Z"/><path id="Trazado_685" data-name="Trazado 685" class="cls-4" d="M126,174a7.45,7.45,0,0,0,0,14.9h7.26V174.05H126Z"/><circle id="Elipse_59" data-name="Elipse 59" class="cls-5" cx="133.27" cy="181.36" r="7.45"/><circle id="Elipse_60" data-name="Elipse 60" class="cls-4" cx="133.27" cy="181.36" r="7.45"/><path id="Trazado_686" data-name="Trazado 686" class="cls-2" d="M88.85,187.15a2.67,2.67,0,0,1-2.66-2.66V90.05a2.67,2.67,0,0,1,2.66-2.66H94.3v-6H88.18a8,8,0,0,0-8,8v95.76a8,8,0,0,0,8,8H94.3v-6Z"/><ellipse id="Elipse_61" data-name="Elipse 61" class="cls-1" cx="95.17" cy="189.68" rx="3.13" ry="7.05"/><path id="Trazado_687" data-name="Trazado 687" class="cls-4" d="M88.85,187.15a2.67,2.67,0,0,1-2.66-2.66V90.05a2.67,2.67,0,0,1,2.66-2.66H94.3v-6H88.18a8,8,0,0,0-8,8v95.76a8,8,0,0,0,8,8H94.3v-6Z"/><path id="Trazado_688" data-name="Trazado 688" class="cls-4" d="M207.89,251.79H35A26.59,26.59,0,0,1,8.38,225.2h0V52.28A26.59,26.59,0,0,1,35,25.68H207.89a26.59,26.59,0,0,1,26.6,26.59h0V225.19a26.59,26.59,0,0,1-26.59,26.6Z"/><line id="Línea_59" data-name="Línea 59" class="cls-15" x1="94.5" y1="90.19" x2="95.17" y2="208.3"/><line id="Línea_60" data-name="Línea 60" class="cls-4" x1="93.9" y1="35.12" x2="104.21" y2="34.79"/><line id="Línea_61" data-name="Línea 61" class="cls-4" x1="94.83" y1="242.28" x2="104.34" y2="242.55"/></g></g></g></svg>