<svg xmlns="http://www.w3.org/2000/svg" viewBox="0 0 599.84 356.01"><defs><style>.cls-1,.cls-2{fill:#666;}.cls-1,.cls-3{opacity:0.5;}</style></defs><g id="Capa_2" data-name="Capa 2"><g id="Layer_1" data-name="Layer 1"><path class="cls-1" d="M516.63,159.25A23.63,23.63,0,1,0,493,182.88,23.63,23.63,0,0,0,516.63,159.25Z"/><path class="cls-2" d="M12.19,194.31a153.16,153.16,0,0,1,292.47-63.63,153.16,153.16,0,1,0-290.81,86.1A154.15,154.15,0,0,1,12.19,194.31Z"/><path class="cls-2" d="M207.81,122.79V299.27h-31V122.79Z"/><path class="cls-2" d="M298.75,187.93v85.75q0,17.37-.71,22.44t-5,10.74a26.87,26.87,0,0,1-12,8.65q-7.71,3-19.4,3-14.38,0-23.1-5.49t-9-21.61h29.2q0,7.38,4.77,7.38c2.28,0,3.8-.75,4.54-2.26s1.12-4.68,1.12-9.49v-8.4a28.72,28.72,0,0,1-8.15,6,20.81,20.81,0,0,1-9,2q-8.11,0-13.37-3.69a18.53,18.53,0,0,1-7.19-9.69q-1.95-6-1.94-17.08V215.7q0-15.85,5.07-22.82t15.42-7a20.71,20.71,0,0,1,10.31,2.61,25.47,25.47,0,0,1,8.31,7.81l2.16-8.41Zm-30.17,29.53c0-5.09-.27-8.33-.78-9.73a3.3,3.3,0,0,0-3.47-2.1,3.74,3.74,0,0,0-3.68,2.4c-.72,1.59-1.09,4.74-1.09,9.43v37.42c0,5,.28,8.21.82,9.7a3.3,3.3,0,0,0,3.43,2.22,3.69,3.69,0,0,0,3.87-2.69q.9-2.67.9-12.16Z"/><path class="cls-2" d="M389.3,227V254.3q0,15-1.34,22a32.53,32.53,0,0,1-5.73,13.09,26.2,26.2,0,0,1-11.29,9,40.56,40.56,0,0,1-15.83,2.89,50.6,50.6,0,0,1-16.91-2.47,22.83,22.83,0,0,1-10.76-7.47A31.06,31.06,0,0,1,322,279.26q-1.63-7.1-1.63-21.27V229.47q0-15.53,3-24.25a27.14,27.14,0,0,1,10.73-14q7.74-5.29,19.81-5.29a40.68,40.68,0,0,1,17.39,3.4,28.13,28.13,0,0,1,11.21,8.85,32.57,32.57,0,0,1,5.4,11.24Q389.3,215.2,389.3,227Zm-30.09-8.39q0-8.56-.82-10.78a3.35,3.35,0,0,0-3.5-2.23,3.47,3.47,0,0,0-3.57,2.23q-.9,2.22-.9,10.78V268.9c0,5.25.3,8.68.9,10.27a3.84,3.84,0,0,0,7,.21q.86-2.17.86-9.39Z"/><path class="cls-2" d="M441.05,187.93l-1.19,14.64q6.56-15.72,19-16.65V225.1q-8.27,0-12.14,2.52a10.45,10.45,0,0,0-4.76,7q-.9,4.49-.9,20.68v44H411V187.93Z"/><path class="cls-2" d="M508.29,187.93V299.27h-31V187.93Z"/><path class="cls-2" d="M557.74,231.06H529.5v-7.47q0-12.92,2.65-19.93t10.62-12.37q8-5.37,20.7-5.37,15.27,0,23,6.08a23.91,23.91,0,0,1,9.31,14.94q1.56,8.85,1.57,36.45v55.88H568.09v-9.92A21.3,21.3,0,0,1,561,298.3a18,18,0,0,1-10.39,3,23.43,23.43,0,0,1-14.49-5q-6.58-5-6.6-21.86v-9.14q0-12.5,3.51-17t17.35-10.57q14.83-6.56,15.87-8.81c.7-1.52,1-4.59,1-9.23q0-8.73-1.16-11.37a4,4,0,0,0-3.84-2.65c-2,0-3.3.75-3.8,2.23s-.74,5.33-.74,11.53Zm9.54,15.27q-7.24,6-8.39,10a44.5,44.5,0,0,0-1.15,11.58q0,8.64,1,11.16a3.9,3.9,0,0,0,4,2.52c1.89,0,3.12-.66,3.69-2s.86-4.77.86-10.37Z"/><path class="cls-1" d="M141.17,108.09l3.54,27.28C167.07,107.68,200.18,88,238.26,81.6a159.17,159.17,0,0,0-59.73-11.52c-39.84,0-76,14.44-103,38Z"/><path class="cls-1" d="M57.75,126.71A133.39,133.39,0,0,0,28.1,210.29,131.67,131.67,0,0,0,41.37,268Z"/><path class="cls-1" d="M151.6,311.63h-77c27,24.08,63.63,38.87,104,38.87a161,161,0,0,0,26.73-2.26A150.53,150.53,0,0,1,151.6,311.63Z"/><path class="cls-2" d="M129.78,121.05l23.09,177.62H111.62l-2.17-31.92H95l-2.42,31.92H50.86L71.45,121.05ZM108.39,235.26q-3.06-30.18-6.14-74.61-6.18,51-7.75,74.61Z"/><g class="cls-3"><path class="cls-2" d="M454.79,354.11a15.18,15.18,0,0,1-7.45,1.71c-9.87,0-16.49-8.07-16.49-23.27,0-13.21,6.52-23.94,17.79-23.94A14.26,14.26,0,0,1,455,310l-1.4,6a11.41,11.41,0,0,0-5.12-1.24c-7.17,0-10.43,8.74-10.43,17.77,0,10.73,4,17.19,10.61,17.19a12.07,12.07,0,0,0,5.22-1.23Z"/><path class="cls-2" d="M506.68,332.26c0,17.77-8.1,23.75-15,23.75-8.1,0-14.62-7.5-14.62-23.65,0-16.82,7.36-23.85,15.09-23.85C500.16,308.51,506.68,316.21,506.68,332.26Zm-22.45,0c0,7.6,1.31,18,7.83,18,6.15,0,7.36-10.83,7.36-18s-1.21-17.86-7.55-17.86S484.23,325.23,484.23,332.26Z"/><path class="cls-2" d="M533.23,321.15c0-3.9-.27-8.46-.37-11.88h6.43l.37,7.22h.19c1.49-4.37,5.31-8,9.5-8,.56,0,1,.1,1.49.1v7.5a7.75,7.75,0,0,0-1.49-.09c-4.56,0-7.92,4.27-8.66,9.59a28.06,28.06,0,0,0-.28,4.18v25.46h-7.18Z"/><path class="cls-2" d="M578.79,332.93c.09,14.06,5.49,17.1,10.71,17.1a14.84,14.84,0,0,0,7.45-1.81l1.12,5.42a21.42,21.42,0,0,1-9.87,2.18c-10.81,0-16.4-9-16.4-23.08,0-14.92,6.15-24.23,15.19-24.23,9.22,0,12.85,9.88,12.85,20.33,0,1.71,0,3-.09,4.09ZM593,327.51c.18-9.21-3.26-13.3-6.71-13.3-4.66,0-7.08,7-7.36,13.3Z"/></g></g></g></svg>